<?xml version="1.0" encoding="utf-8" standalone="no"?>
<!DOCTYPE svg PUBLIC "-//W3C//DTD SVG 1.1//EN"
  "http://www.w3.org/Graphics/SVG/1.1/DTD/svg11.dtd">
<svg xmlns:xlink="http://www.w3.org/1999/xlink" width="476.400774pt" height="224.39952pt" viewBox="0 0 476.400774 224.39952" xmlns="http://www.w3.org/2000/svg" version="1.1">
 <metadata>
  <rdf:RDF xmlns:dc="http://purl.org/dc/elements/1.1/" xmlns:cc="http://creativecommons.org/ns#" xmlns:rdf="http://www.w3.org/1999/02/22-rdf-syntax-ns#">
   <cc:Work>
    <dc:type rdf:resource="http://purl.org/dc/dcmitype/StillImage"/>
    <dc:date>2023-02-12T22:33:55.152663</dc:date>
    <dc:format>image/svg+xml</dc:format>
    <dc:creator>
     <cc:Agent>
      <dc:title>Matplotlib v3.5.1, https://matplotlib.org/</dc:title>
     </cc:Agent>
    </dc:creator>
   </cc:Work>
  </rdf:RDF>
 </metadata>
 <defs>
  <style type="text/css">*{stroke-linejoin: round; stroke-linecap: butt}</style>
 </defs>
 <g id="figure_1">
  <g id="patch_1">
   <path d="M 0 224.39952 
L 476.400774 224.39952 
L 476.400774 0 
L 0 0 
L 0 224.39952 
z
" style="fill: none"/>
  </g>
  <g id="axes_1">
   <g id="patch_2">
    <path d="M 43.78125 186.821395 
L 197.630389 186.821395 
L 197.630389 22.318125 
L 43.78125 22.318125 
z
" style="fill: #ffffff"/>
   </g>
   <g id="line2d_1">
    <path d="M 50.774393 179.343974 
L 52.187149 164.882815 
L 53.599905 155.928587 
L 55.012661 149.169666 
L 56.425417 143.642397 
L 57.838173 138.918085 
L 59.250929 134.764761 
L 60.663685 131.041337 
L 62.076441 127.65498 
L 63.489198 124.541039 
L 64.901954 121.652515 
L 66.31471 118.954063 
L 67.727466 116.418369 
L 69.140222 114.023848 
L 70.552978 111.753118 
L 71.965734 109.591953 
L 73.37849 107.528549 
L 74.791246 105.552995 
L 76.204002 103.656879 
L 77.616758 101.832996 
L 79.029515 100.075121 
L 80.442271 98.377836 
L 81.855027 96.736396 
L 83.267783 95.146616 
L 84.680539 93.604786 
L 86.093295 92.1076 
L 87.506051 90.652099 
L 88.918807 89.235623 
L 90.331563 87.855769 
L 91.744319 86.510361 
L 93.157075 85.19742 
L 94.569832 83.915141 
L 95.982588 82.661873 
L 97.395344 81.4361 
L 98.8081 80.236428 
L 100.220856 79.061573 
L 101.633612 77.910345 
L 103.046368 76.781645 
L 104.459124 75.674451 
L 105.87188 74.587812 
L 107.284636 73.520842 
L 108.697393 72.472714 
L 110.110149 71.442656 
L 111.522905 70.429943 
L 112.935661 69.433896 
L 114.348417 68.453875 
L 115.761173 67.489281 
L 117.173929 66.539548 
L 118.586685 65.604142 
L 119.999441 64.682559 
L 121.412197 63.774323 
L 122.824953 62.878982 
L 124.23771 61.996109 
L 125.650466 61.125299 
L 127.063222 60.266166 
L 128.475978 59.418345 
L 129.888734 58.581487 
L 131.30149 57.755261 
L 132.714246 56.93935 
L 134.127002 56.133454 
L 135.539758 55.337285 
L 136.952514 54.550567 
L 138.36527 53.773038 
L 139.778027 53.004447 
L 141.190783 52.244552 
L 142.603539 51.493124 
L 144.016295 50.749941 
L 145.429051 50.01479 
L 146.841807 49.287469 
L 148.254563 48.567782 
L 149.667319 47.85554 
L 151.080075 47.150563 
L 152.492831 46.452677 
L 153.905588 45.761714 
L 155.318344 45.077514 
L 156.7311 44.39992 
L 158.143856 43.728783 
L 159.556612 43.063959 
L 160.969368 42.405307 
L 162.382124 41.752694 
L 163.79488 41.105988 
L 165.207636 40.465065 
L 166.620392 39.829802 
L 168.033148 39.200083 
L 169.445905 38.575792 
L 170.858661 37.956821 
L 172.271417 37.343063 
L 173.684173 36.734414 
L 175.096929 36.130774 
L 176.509685 35.532046 
L 177.922441 34.938137 
L 179.335197 34.348954 
L 180.747953 33.764409 
L 182.160709 33.184417 
L 183.573466 32.608893 
L 184.986222 32.037757 
L 186.398978 31.47093 
L 187.811734 30.908335 
L 189.22449 30.349898 
L 190.637246 29.795546 
" clip-path="url(#p4cce92538b)" style="fill: none; stroke-dasharray: 5.55,2.4; stroke-dashoffset: 0; stroke: #d3d3d3; stroke-width: 1.5"/>
   </g>
   <g id="PathCollection_1">
    <defs>
     <path id="m26ee5c5223" d="M -3.535534 0 
L 3.535534 0 
M 0 3.535534 
L 0 -3.535534 
" style="stroke: #000000; stroke-width: 1.5"/>
    </defs>
    <g clip-path="url(#p4cce92538b)">
     <use xlink:href="#m26ee5c5223" x="50.774393" y="176.105501" style="stroke: #000000; stroke-width: 1.5"/>
     <use xlink:href="#m26ee5c5223" x="51.71307" y="165.599416" style="stroke: #000000; stroke-width: 1.5"/>
     <use xlink:href="#m26ee5c5223" x="53.590423" y="154.075116" style="stroke: #000000; stroke-width: 1.5"/>
     <use xlink:href="#m26ee5c5223" x="57.345131" y="140.628107" style="stroke: #000000; stroke-width: 1.5"/>
     <use xlink:href="#m26ee5c5223" x="64.854546" y="123.478684" style="stroke: #000000; stroke-width: 1.5"/>
     <use xlink:href="#m26ee5c5223" x="79.873376" y="106.023845" style="stroke: #000000; stroke-width: 1.5"/>
     <use xlink:href="#m26ee5c5223" x="109.911035" y="75.191127" style="stroke: #000000; stroke-width: 1.5"/>
     <use xlink:href="#m26ee5c5223" x="169.986355" y="32.156838" style="stroke: #000000; stroke-width: 1.5"/>
    </g>
   </g>
   <g id="matplotlib.axis_1">
    <g id="xtick_1">
     <g id="line2d_2">
      <defs>
       <path id="m11b09d6446" d="M 0 0 
L 0 3.5 
" style="stroke: #000000; stroke-width: 0.8"/>
      </defs>
      <g>
       <use xlink:href="#m11b09d6446" x="49.835716" y="186.821395" style="stroke: #000000; stroke-width: 0.8"/>
      </g>
     </g>
     <g id="text_1">
      <!-- 0 -->
      <g transform="translate(46.654466 201.419833)scale(0.1 -0.1)">
       <defs>
        <path id="DejaVuSans-30" d="M 2034 4250 
Q 1547 4250 1301 3770 
Q 1056 3291 1056 2328 
Q 1056 1369 1301 889 
Q 1547 409 2034 409 
Q 2525 409 2770 889 
Q 3016 1369 3016 2328 
Q 3016 3291 2770 3770 
Q 2525 4250 2034 4250 
z
M 2034 4750 
Q 2819 4750 3233 4129 
Q 3647 3509 3647 2328 
Q 3647 1150 3233 529 
Q 2819 -91 2034 -91 
Q 1250 -91 836 529 
Q 422 1150 422 2328 
Q 422 3509 836 4129 
Q 1250 4750 2034 4750 
z
" transform="scale(0.015625)"/>
       </defs>
       <use xlink:href="#DejaVuSans-30"/>
      </g>
     </g>
    </g>
    <g id="xtick_2">
     <g id="line2d_3">
      <g>
       <use xlink:href="#m11b09d6446" x="96.769559" y="186.821395" style="stroke: #000000; stroke-width: 0.8"/>
      </g>
     </g>
     <g id="text_2">
      <!-- 200 -->
      <g transform="translate(87.225809 201.419833)scale(0.1 -0.1)">
       <defs>
        <path id="DejaVuSans-32" d="M 1228 531 
L 3431 531 
L 3431 0 
L 469 0 
L 469 531 
Q 828 903 1448 1529 
Q 2069 2156 2228 2338 
Q 2531 2678 2651 2914 
Q 2772 3150 2772 3378 
Q 2772 3750 2511 3984 
Q 2250 4219 1831 4219 
Q 1534 4219 1204 4116 
Q 875 4013 500 3803 
L 500 4441 
Q 881 4594 1212 4672 
Q 1544 4750 1819 4750 
Q 2544 4750 2975 4387 
Q 3406 4025 3406 3419 
Q 3406 3131 3298 2873 
Q 3191 2616 2906 2266 
Q 2828 2175 2409 1742 
Q 1991 1309 1228 531 
z
" transform="scale(0.015625)"/>
       </defs>
       <use xlink:href="#DejaVuSans-32"/>
       <use xlink:href="#DejaVuSans-30" x="63.623047"/>
       <use xlink:href="#DejaVuSans-30" x="127.246094"/>
      </g>
     </g>
    </g>
    <g id="xtick_3">
     <g id="line2d_4">
      <g>
       <use xlink:href="#m11b09d6446" x="143.703403" y="186.821395" style="stroke: #000000; stroke-width: 0.8"/>
      </g>
     </g>
     <g id="text_3">
      <!-- 400 -->
      <g transform="translate(134.159653 201.419833)scale(0.1 -0.1)">
       <defs>
        <path id="DejaVuSans-34" d="M 2419 4116 
L 825 1625 
L 2419 1625 
L 2419 4116 
z
M 2253 4666 
L 3047 4666 
L 3047 1625 
L 3713 1625 
L 3713 1100 
L 3047 1100 
L 3047 0 
L 2419 0 
L 2419 1100 
L 313 1100 
L 313 1709 
L 2253 4666 
z
" transform="scale(0.015625)"/>
       </defs>
       <use xlink:href="#DejaVuSans-34"/>
       <use xlink:href="#DejaVuSans-30" x="63.623047"/>
       <use xlink:href="#DejaVuSans-30" x="127.246094"/>
      </g>
     </g>
    </g>
    <g id="xtick_4">
     <g id="line2d_5">
      <g>
       <use xlink:href="#m11b09d6446" x="190.637246" y="186.821395" style="stroke: #000000; stroke-width: 0.8"/>
      </g>
     </g>
     <g id="text_4">
      <!-- 600 -->
      <g transform="translate(181.093496 201.419833)scale(0.1 -0.1)">
       <defs>
        <path id="DejaVuSans-36" d="M 2113 2584 
Q 1688 2584 1439 2293 
Q 1191 2003 1191 1497 
Q 1191 994 1439 701 
Q 1688 409 2113 409 
Q 2538 409 2786 701 
Q 3034 994 3034 1497 
Q 3034 2003 2786 2293 
Q 2538 2584 2113 2584 
z
M 3366 4563 
L 3366 3988 
Q 3128 4100 2886 4159 
Q 2644 4219 2406 4219 
Q 1781 4219 1451 3797 
Q 1122 3375 1075 2522 
Q 1259 2794 1537 2939 
Q 1816 3084 2150 3084 
Q 2853 3084 3261 2657 
Q 3669 2231 3669 1497 
Q 3669 778 3244 343 
Q 2819 -91 2113 -91 
Q 1303 -91 875 529 
Q 447 1150 447 2328 
Q 447 3434 972 4092 
Q 1497 4750 2381 4750 
Q 2619 4750 2861 4703 
Q 3103 4656 3366 4563 
z
" transform="scale(0.015625)"/>
       </defs>
       <use xlink:href="#DejaVuSans-36"/>
       <use xlink:href="#DejaVuSans-30" x="63.623047"/>
       <use xlink:href="#DejaVuSans-30" x="127.246094"/>
      </g>
     </g>
    </g>
    <g id="text_5">
     <!-- System Length, $L$ -->
     <g transform="translate(77.155819 215.09952)scale(0.1 -0.1)">
      <defs>
       <path id="DejaVuSans-53" d="M 3425 4513 
L 3425 3897 
Q 3066 4069 2747 4153 
Q 2428 4238 2131 4238 
Q 1616 4238 1336 4038 
Q 1056 3838 1056 3469 
Q 1056 3159 1242 3001 
Q 1428 2844 1947 2747 
L 2328 2669 
Q 3034 2534 3370 2195 
Q 3706 1856 3706 1288 
Q 3706 609 3251 259 
Q 2797 -91 1919 -91 
Q 1588 -91 1214 -16 
Q 841 59 441 206 
L 441 856 
Q 825 641 1194 531 
Q 1563 422 1919 422 
Q 2459 422 2753 634 
Q 3047 847 3047 1241 
Q 3047 1584 2836 1778 
Q 2625 1972 2144 2069 
L 1759 2144 
Q 1053 2284 737 2584 
Q 422 2884 422 3419 
Q 422 4038 858 4394 
Q 1294 4750 2059 4750 
Q 2388 4750 2728 4690 
Q 3069 4631 3425 4513 
z
" transform="scale(0.015625)"/>
       <path id="DejaVuSans-79" d="M 2059 -325 
Q 1816 -950 1584 -1140 
Q 1353 -1331 966 -1331 
L 506 -1331 
L 506 -850 
L 844 -850 
Q 1081 -850 1212 -737 
Q 1344 -625 1503 -206 
L 1606 56 
L 191 3500 
L 800 3500 
L 1894 763 
L 2988 3500 
L 3597 3500 
L 2059 -325 
z
" transform="scale(0.015625)"/>
       <path id="DejaVuSans-73" d="M 2834 3397 
L 2834 2853 
Q 2591 2978 2328 3040 
Q 2066 3103 1784 3103 
Q 1356 3103 1142 2972 
Q 928 2841 928 2578 
Q 928 2378 1081 2264 
Q 1234 2150 1697 2047 
L 1894 2003 
Q 2506 1872 2764 1633 
Q 3022 1394 3022 966 
Q 3022 478 2636 193 
Q 2250 -91 1575 -91 
Q 1294 -91 989 -36 
Q 684 19 347 128 
L 347 722 
Q 666 556 975 473 
Q 1284 391 1588 391 
Q 1994 391 2212 530 
Q 2431 669 2431 922 
Q 2431 1156 2273 1281 
Q 2116 1406 1581 1522 
L 1381 1569 
Q 847 1681 609 1914 
Q 372 2147 372 2553 
Q 372 3047 722 3315 
Q 1072 3584 1716 3584 
Q 2034 3584 2315 3537 
Q 2597 3491 2834 3397 
z
" transform="scale(0.015625)"/>
       <path id="DejaVuSans-74" d="M 1172 4494 
L 1172 3500 
L 2356 3500 
L 2356 3053 
L 1172 3053 
L 1172 1153 
Q 1172 725 1289 603 
Q 1406 481 1766 481 
L 2356 481 
L 2356 0 
L 1766 0 
Q 1100 0 847 248 
Q 594 497 594 1153 
L 594 3053 
L 172 3053 
L 172 3500 
L 594 3500 
L 594 4494 
L 1172 4494 
z
" transform="scale(0.015625)"/>
       <path id="DejaVuSans-65" d="M 3597 1894 
L 3597 1613 
L 953 1613 
Q 991 1019 1311 708 
Q 1631 397 2203 397 
Q 2534 397 2845 478 
Q 3156 559 3463 722 
L 3463 178 
Q 3153 47 2828 -22 
Q 2503 -91 2169 -91 
Q 1331 -91 842 396 
Q 353 884 353 1716 
Q 353 2575 817 3079 
Q 1281 3584 2069 3584 
Q 2775 3584 3186 3129 
Q 3597 2675 3597 1894 
z
M 3022 2063 
Q 3016 2534 2758 2815 
Q 2500 3097 2075 3097 
Q 1594 3097 1305 2825 
Q 1016 2553 972 2059 
L 3022 2063 
z
" transform="scale(0.015625)"/>
       <path id="DejaVuSans-6d" d="M 3328 2828 
Q 3544 3216 3844 3400 
Q 4144 3584 4550 3584 
Q 5097 3584 5394 3201 
Q 5691 2819 5691 2113 
L 5691 0 
L 5113 0 
L 5113 2094 
Q 5113 2597 4934 2840 
Q 4756 3084 4391 3084 
Q 3944 3084 3684 2787 
Q 3425 2491 3425 1978 
L 3425 0 
L 2847 0 
L 2847 2094 
Q 2847 2600 2669 2842 
Q 2491 3084 2119 3084 
Q 1678 3084 1418 2786 
Q 1159 2488 1159 1978 
L 1159 0 
L 581 0 
L 581 3500 
L 1159 3500 
L 1159 2956 
Q 1356 3278 1631 3431 
Q 1906 3584 2284 3584 
Q 2666 3584 2933 3390 
Q 3200 3197 3328 2828 
z
" transform="scale(0.015625)"/>
       <path id="DejaVuSans-20" transform="scale(0.015625)"/>
       <path id="DejaVuSans-4c" d="M 628 4666 
L 1259 4666 
L 1259 531 
L 3531 531 
L 3531 0 
L 628 0 
L 628 4666 
z
" transform="scale(0.015625)"/>
       <path id="DejaVuSans-6e" d="M 3513 2113 
L 3513 0 
L 2938 0 
L 2938 2094 
Q 2938 2591 2744 2837 
Q 2550 3084 2163 3084 
Q 1697 3084 1428 2787 
Q 1159 2491 1159 1978 
L 1159 0 
L 581 0 
L 581 3500 
L 1159 3500 
L 1159 2956 
Q 1366 3272 1645 3428 
Q 1925 3584 2291 3584 
Q 2894 3584 3203 3211 
Q 3513 2838 3513 2113 
z
" transform="scale(0.015625)"/>
       <path id="DejaVuSans-67" d="M 2906 1791 
Q 2906 2416 2648 2759 
Q 2391 3103 1925 3103 
Q 1463 3103 1205 2759 
Q 947 2416 947 1791 
Q 947 1169 1205 825 
Q 1463 481 1925 481 
Q 2391 481 2648 825 
Q 2906 1169 2906 1791 
z
M 3481 434 
Q 3481 -459 3084 -895 
Q 2688 -1331 1869 -1331 
Q 1566 -1331 1297 -1286 
Q 1028 -1241 775 -1147 
L 775 -588 
Q 1028 -725 1275 -790 
Q 1522 -856 1778 -856 
Q 2344 -856 2625 -561 
Q 2906 -266 2906 331 
L 2906 616 
Q 2728 306 2450 153 
Q 2172 0 1784 0 
Q 1141 0 747 490 
Q 353 981 353 1791 
Q 353 2603 747 3093 
Q 1141 3584 1784 3584 
Q 2172 3584 2450 3431 
Q 2728 3278 2906 2969 
L 2906 3500 
L 3481 3500 
L 3481 434 
z
" transform="scale(0.015625)"/>
       <path id="DejaVuSans-68" d="M 3513 2113 
L 3513 0 
L 2938 0 
L 2938 2094 
Q 2938 2591 2744 2837 
Q 2550 3084 2163 3084 
Q 1697 3084 1428 2787 
Q 1159 2491 1159 1978 
L 1159 0 
L 581 0 
L 581 4863 
L 1159 4863 
L 1159 2956 
Q 1366 3272 1645 3428 
Q 1925 3584 2291 3584 
Q 2894 3584 3203 3211 
Q 3513 2838 3513 2113 
z
" transform="scale(0.015625)"/>
       <path id="DejaVuSans-2c" d="M 750 794 
L 1409 794 
L 1409 256 
L 897 -744 
L 494 -744 
L 750 256 
L 750 794 
z
" transform="scale(0.015625)"/>
       <path id="DejaVuSans-Oblique-4c" d="M 1075 4666 
L 1709 4666 
L 909 525 
L 3181 525 
L 3078 0 
L 172 0 
L 1075 4666 
z
" transform="scale(0.015625)"/>
      </defs>
      <use xlink:href="#DejaVuSans-53" transform="translate(0 0.015625)"/>
      <use xlink:href="#DejaVuSans-79" transform="translate(63.476562 0.015625)"/>
      <use xlink:href="#DejaVuSans-73" transform="translate(122.65625 0.015625)"/>
      <use xlink:href="#DejaVuSans-74" transform="translate(174.755859 0.015625)"/>
      <use xlink:href="#DejaVuSans-65" transform="translate(213.964844 0.015625)"/>
      <use xlink:href="#DejaVuSans-6d" transform="translate(275.488281 0.015625)"/>
      <use xlink:href="#DejaVuSans-20" transform="translate(372.900391 0.015625)"/>
      <use xlink:href="#DejaVuSans-4c" transform="translate(404.6875 0.015625)"/>
      <use xlink:href="#DejaVuSans-65" transform="translate(460.400391 0.015625)"/>
      <use xlink:href="#DejaVuSans-6e" transform="translate(521.923828 0.015625)"/>
      <use xlink:href="#DejaVuSans-67" transform="translate(585.302734 0.015625)"/>
      <use xlink:href="#DejaVuSans-74" transform="translate(648.779297 0.015625)"/>
      <use xlink:href="#DejaVuSans-68" transform="translate(687.988281 0.015625)"/>
      <use xlink:href="#DejaVuSans-2c" transform="translate(751.367188 0.015625)"/>
      <use xlink:href="#DejaVuSans-20" transform="translate(783.154297 0.015625)"/>
      <use xlink:href="#DejaVuSans-Oblique-4c" transform="translate(814.941406 0.015625)"/>
     </g>
    </g>
   </g>
   <g id="matplotlib.axis_2">
    <g id="ytick_1">
     <g id="line2d_6">
      <defs>
       <path id="mee5892e080" d="M 0 0 
L -3.5 0 
" style="stroke: #000000; stroke-width: 0.8"/>
      </defs>
      <g>
       <use xlink:href="#mee5892e080" x="43.78125" y="162.977617" style="stroke: #000000; stroke-width: 0.8"/>
      </g>
     </g>
     <g id="text_6">
      <!-- 1.0 -->
      <g transform="translate(20.878125 166.776836)scale(0.1 -0.1)">
       <defs>
        <path id="DejaVuSans-31" d="M 794 531 
L 1825 531 
L 1825 4091 
L 703 3866 
L 703 4441 
L 1819 4666 
L 2450 4666 
L 2450 531 
L 3481 531 
L 3481 0 
L 794 0 
L 794 531 
z
" transform="scale(0.015625)"/>
        <path id="DejaVuSans-2e" d="M 684 794 
L 1344 794 
L 1344 0 
L 684 0 
L 684 794 
z
" transform="scale(0.015625)"/>
       </defs>
       <use xlink:href="#DejaVuSans-31"/>
       <use xlink:href="#DejaVuSans-2e" x="63.623047"/>
       <use xlink:href="#DejaVuSans-30" x="95.410156"/>
      </g>
     </g>
    </g>
    <g id="ytick_2">
     <g id="line2d_7">
      <g>
       <use xlink:href="#mee5892e080" x="43.78125" y="129.683078" style="stroke: #000000; stroke-width: 0.8"/>
      </g>
     </g>
     <g id="text_7">
      <!-- 1.5 -->
      <g transform="translate(20.878125 133.482297)scale(0.1 -0.1)">
       <defs>
        <path id="DejaVuSans-35" d="M 691 4666 
L 3169 4666 
L 3169 4134 
L 1269 4134 
L 1269 2991 
Q 1406 3038 1543 3061 
Q 1681 3084 1819 3084 
Q 2600 3084 3056 2656 
Q 3513 2228 3513 1497 
Q 3513 744 3044 326 
Q 2575 -91 1722 -91 
Q 1428 -91 1123 -41 
Q 819 9 494 109 
L 494 744 
Q 775 591 1075 516 
Q 1375 441 1709 441 
Q 2250 441 2565 725 
Q 2881 1009 2881 1497 
Q 2881 1984 2565 2268 
Q 2250 2553 1709 2553 
Q 1456 2553 1204 2497 
Q 953 2441 691 2322 
L 691 4666 
z
" transform="scale(0.015625)"/>
       </defs>
       <use xlink:href="#DejaVuSans-31"/>
       <use xlink:href="#DejaVuSans-2e" x="63.623047"/>
       <use xlink:href="#DejaVuSans-35" x="95.410156"/>
      </g>
     </g>
    </g>
    <g id="ytick_3">
     <g id="line2d_8">
      <g>
       <use xlink:href="#mee5892e080" x="43.78125" y="96.388539" style="stroke: #000000; stroke-width: 0.8"/>
      </g>
     </g>
     <g id="text_8">
      <!-- 2.0 -->
      <g transform="translate(20.878125 100.187758)scale(0.1 -0.1)">
       <use xlink:href="#DejaVuSans-32"/>
       <use xlink:href="#DejaVuSans-2e" x="63.623047"/>
       <use xlink:href="#DejaVuSans-30" x="95.410156"/>
      </g>
     </g>
    </g>
    <g id="ytick_4">
     <g id="line2d_9">
      <g>
       <use xlink:href="#mee5892e080" x="43.78125" y="63.094" style="stroke: #000000; stroke-width: 0.8"/>
      </g>
     </g>
     <g id="text_9">
      <!-- 2.5 -->
      <g transform="translate(20.878125 66.893219)scale(0.1 -0.1)">
       <use xlink:href="#DejaVuSans-32"/>
       <use xlink:href="#DejaVuSans-2e" x="63.623047"/>
       <use xlink:href="#DejaVuSans-35" x="95.410156"/>
      </g>
     </g>
    </g>
    <g id="ytick_5">
     <g id="line2d_10">
      <g>
       <use xlink:href="#mee5892e080" x="43.78125" y="29.799461" style="stroke: #000000; stroke-width: 0.8"/>
      </g>
     </g>
     <g id="text_10">
      <!-- 3.0 -->
      <g transform="translate(20.878125 33.59868)scale(0.1 -0.1)">
       <defs>
        <path id="DejaVuSans-33" d="M 2597 2516 
Q 3050 2419 3304 2112 
Q 3559 1806 3559 1356 
Q 3559 666 3084 287 
Q 2609 -91 1734 -91 
Q 1441 -91 1130 -33 
Q 819 25 488 141 
L 488 750 
Q 750 597 1062 519 
Q 1375 441 1716 441 
Q 2309 441 2620 675 
Q 2931 909 2931 1356 
Q 2931 1769 2642 2001 
Q 2353 2234 1838 2234 
L 1294 2234 
L 1294 2753 
L 1863 2753 
Q 2328 2753 2575 2939 
Q 2822 3125 2822 3475 
Q 2822 3834 2567 4026 
Q 2313 4219 1838 4219 
Q 1578 4219 1281 4162 
Q 984 4106 628 3988 
L 628 4550 
Q 988 4650 1302 4700 
Q 1616 4750 1894 4750 
Q 2613 4750 3031 4423 
Q 3450 4097 3450 3541 
Q 3450 3153 3228 2886 
Q 3006 2619 2597 2516 
z
" transform="scale(0.015625)"/>
       </defs>
       <use xlink:href="#DejaVuSans-33"/>
       <use xlink:href="#DejaVuSans-2e" x="63.623047"/>
       <use xlink:href="#DejaVuSans-30" x="95.410156"/>
      </g>
     </g>
    </g>
    <g id="text_11">
     <!-- Standard Deviation, $\sigma_h$ -->
     <g transform="translate(14.798438 161.61976)rotate(-90)scale(0.1 -0.1)">
      <defs>
       <path id="DejaVuSans-61" d="M 2194 1759 
Q 1497 1759 1228 1600 
Q 959 1441 959 1056 
Q 959 750 1161 570 
Q 1363 391 1709 391 
Q 2188 391 2477 730 
Q 2766 1069 2766 1631 
L 2766 1759 
L 2194 1759 
z
M 3341 1997 
L 3341 0 
L 2766 0 
L 2766 531 
Q 2569 213 2275 61 
Q 1981 -91 1556 -91 
Q 1019 -91 701 211 
Q 384 513 384 1019 
Q 384 1609 779 1909 
Q 1175 2209 1959 2209 
L 2766 2209 
L 2766 2266 
Q 2766 2663 2505 2880 
Q 2244 3097 1772 3097 
Q 1472 3097 1187 3025 
Q 903 2953 641 2809 
L 641 3341 
Q 956 3463 1253 3523 
Q 1550 3584 1831 3584 
Q 2591 3584 2966 3190 
Q 3341 2797 3341 1997 
z
" transform="scale(0.015625)"/>
       <path id="DejaVuSans-64" d="M 2906 2969 
L 2906 4863 
L 3481 4863 
L 3481 0 
L 2906 0 
L 2906 525 
Q 2725 213 2448 61 
Q 2172 -91 1784 -91 
Q 1150 -91 751 415 
Q 353 922 353 1747 
Q 353 2572 751 3078 
Q 1150 3584 1784 3584 
Q 2172 3584 2448 3432 
Q 2725 3281 2906 2969 
z
M 947 1747 
Q 947 1113 1208 752 
Q 1469 391 1925 391 
Q 2381 391 2643 752 
Q 2906 1113 2906 1747 
Q 2906 2381 2643 2742 
Q 2381 3103 1925 3103 
Q 1469 3103 1208 2742 
Q 947 2381 947 1747 
z
" transform="scale(0.015625)"/>
       <path id="DejaVuSans-72" d="M 2631 2963 
Q 2534 3019 2420 3045 
Q 2306 3072 2169 3072 
Q 1681 3072 1420 2755 
Q 1159 2438 1159 1844 
L 1159 0 
L 581 0 
L 581 3500 
L 1159 3500 
L 1159 2956 
Q 1341 3275 1631 3429 
Q 1922 3584 2338 3584 
Q 2397 3584 2469 3576 
Q 2541 3569 2628 3553 
L 2631 2963 
z
" transform="scale(0.015625)"/>
       <path id="DejaVuSans-44" d="M 1259 4147 
L 1259 519 
L 2022 519 
Q 2988 519 3436 956 
Q 3884 1394 3884 2338 
Q 3884 3275 3436 3711 
Q 2988 4147 2022 4147 
L 1259 4147 
z
M 628 4666 
L 1925 4666 
Q 3281 4666 3915 4102 
Q 4550 3538 4550 2338 
Q 4550 1131 3912 565 
Q 3275 0 1925 0 
L 628 0 
L 628 4666 
z
" transform="scale(0.015625)"/>
       <path id="DejaVuSans-76" d="M 191 3500 
L 800 3500 
L 1894 563 
L 2988 3500 
L 3597 3500 
L 2284 0 
L 1503 0 
L 191 3500 
z
" transform="scale(0.015625)"/>
       <path id="DejaVuSans-69" d="M 603 3500 
L 1178 3500 
L 1178 0 
L 603 0 
L 603 3500 
z
M 603 4863 
L 1178 4863 
L 1178 4134 
L 603 4134 
L 603 4863 
z
" transform="scale(0.015625)"/>
       <path id="DejaVuSans-6f" d="M 1959 3097 
Q 1497 3097 1228 2736 
Q 959 2375 959 1747 
Q 959 1119 1226 758 
Q 1494 397 1959 397 
Q 2419 397 2687 759 
Q 2956 1122 2956 1747 
Q 2956 2369 2687 2733 
Q 2419 3097 1959 3097 
z
M 1959 3584 
Q 2709 3584 3137 3096 
Q 3566 2609 3566 1747 
Q 3566 888 3137 398 
Q 2709 -91 1959 -91 
Q 1206 -91 779 398 
Q 353 888 353 1747 
Q 353 2609 779 3096 
Q 1206 3584 1959 3584 
z
" transform="scale(0.015625)"/>
       <path id="DejaVuSans-Oblique-3c3" d="M 2219 3044 
Q 1744 3044 1422 2700 
Q 1081 2341 969 1747 
Q 844 1119 1044 756 
Q 1241 397 1706 397 
Q 2166 397 2503 759 
Q 2844 1122 2966 1747 
Q 3075 2319 2881 2700 
Q 2700 3044 2219 3044 
z
M 2309 3503 
L 4219 3500 
L 4106 2925 
L 3463 2925 
Q 3706 2438 3575 1747 
Q 3406 888 2884 400 
Q 2359 -91 1609 -91 
Q 856 -91 525 400 
Q 194 888 363 1747 
Q 528 2609 1050 3097 
Q 1484 3503 2309 3503 
z
" transform="scale(0.015625)"/>
       <path id="DejaVuSans-Oblique-68" d="M 3566 2113 
L 3156 0 
L 2578 0 
L 2988 2091 
Q 3016 2238 3031 2350 
Q 3047 2463 3047 2528 
Q 3047 2791 2881 2937 
Q 2716 3084 2419 3084 
Q 1956 3084 1617 2771 
Q 1278 2459 1178 1941 
L 800 0 
L 225 0 
L 1172 4863 
L 1747 4863 
L 1375 2950 
Q 1594 3244 1934 3414 
Q 2275 3584 2650 3584 
Q 3113 3584 3367 3334 
Q 3622 3084 3622 2631 
Q 3622 2519 3608 2391 
Q 3594 2263 3566 2113 
z
" transform="scale(0.015625)"/>
      </defs>
      <use xlink:href="#DejaVuSans-53" transform="translate(0 0.015625)"/>
      <use xlink:href="#DejaVuSans-74" transform="translate(63.476562 0.015625)"/>
      <use xlink:href="#DejaVuSans-61" transform="translate(102.685547 0.015625)"/>
      <use xlink:href="#DejaVuSans-6e" transform="translate(163.964844 0.015625)"/>
      <use xlink:href="#DejaVuSans-64" transform="translate(227.34375 0.015625)"/>
      <use xlink:href="#DejaVuSans-61" transform="translate(290.820312 0.015625)"/>
      <use xlink:href="#DejaVuSans-72" transform="translate(352.099609 0.015625)"/>
      <use xlink:href="#DejaVuSans-64" transform="translate(393.212891 0.015625)"/>
      <use xlink:href="#DejaVuSans-20" transform="translate(456.689453 0.015625)"/>
      <use xlink:href="#DejaVuSans-44" transform="translate(488.476562 0.015625)"/>
      <use xlink:href="#DejaVuSans-65" transform="translate(565.478516 0.015625)"/>
      <use xlink:href="#DejaVuSans-76" transform="translate(627.001953 0.015625)"/>
      <use xlink:href="#DejaVuSans-69" transform="translate(686.181641 0.015625)"/>
      <use xlink:href="#DejaVuSans-61" transform="translate(713.964844 0.015625)"/>
      <use xlink:href="#DejaVuSans-74" transform="translate(775.244141 0.015625)"/>
      <use xlink:href="#DejaVuSans-69" transform="translate(814.453125 0.015625)"/>
      <use xlink:href="#DejaVuSans-6f" transform="translate(842.236328 0.015625)"/>
      <use xlink:href="#DejaVuSans-6e" transform="translate(903.417969 0.015625)"/>
      <use xlink:href="#DejaVuSans-2c" transform="translate(966.796875 0.015625)"/>
      <use xlink:href="#DejaVuSans-20" transform="translate(998.583984 0.015625)"/>
      <use xlink:href="#DejaVuSans-Oblique-3c3" transform="translate(1030.371094 0.015625)"/>
      <use xlink:href="#DejaVuSans-Oblique-68" transform="translate(1093.75 -16.390625)scale(0.7)"/>
     </g>
    </g>
   </g>
   <g id="patch_3">
    <path d="M 43.78125 186.821395 
L 43.78125 22.318125 
" style="fill: none; stroke: #000000; stroke-width: 0.8; stroke-linejoin: miter; stroke-linecap: square"/>
   </g>
   <g id="patch_4">
    <path d="M 197.630389 186.821395 
L 197.630389 22.318125 
" style="fill: none; stroke: #000000; stroke-width: 0.8; stroke-linejoin: miter; stroke-linecap: square"/>
   </g>
   <g id="patch_5">
    <path d="M 43.78125 186.821395 
L 197.630389 186.821395 
" style="fill: none; stroke: #000000; stroke-width: 0.8; stroke-linejoin: miter; stroke-linecap: square"/>
   </g>
   <g id="patch_6">
    <path d="M 43.78125 22.318125 
L 197.630389 22.318125 
" style="fill: none; stroke: #000000; stroke-width: 0.8; stroke-linejoin: miter; stroke-linecap: square"/>
   </g>
   <g id="text_12">
    <!-- (A) -->
    <g transform="translate(111.919569 16.318125)scale(0.12 -0.12)">
     <defs>
      <path id="DejaVuSans-28" d="M 1984 4856 
Q 1566 4138 1362 3434 
Q 1159 2731 1159 2009 
Q 1159 1288 1364 580 
Q 1569 -128 1984 -844 
L 1484 -844 
Q 1016 -109 783 600 
Q 550 1309 550 2009 
Q 550 2706 781 3412 
Q 1013 4119 1484 4856 
L 1984 4856 
z
" transform="scale(0.015625)"/>
      <path id="DejaVuSans-41" d="M 2188 4044 
L 1331 1722 
L 3047 1722 
L 2188 4044 
z
M 1831 4666 
L 2547 4666 
L 4325 0 
L 3669 0 
L 3244 1197 
L 1141 1197 
L 716 0 
L 50 0 
L 1831 4666 
z
" transform="scale(0.015625)"/>
      <path id="DejaVuSans-29" d="M 513 4856 
L 1013 4856 
Q 1481 4119 1714 3412 
Q 1947 2706 1947 2009 
Q 1947 1309 1714 600 
Q 1481 -109 1013 -844 
L 513 -844 
Q 928 -128 1133 580 
Q 1338 1288 1338 2009 
Q 1338 2731 1133 3434 
Q 928 4138 513 4856 
z
" transform="scale(0.015625)"/>
     </defs>
     <use xlink:href="#DejaVuSans-28"/>
     <use xlink:href="#DejaVuSans-41" x="39.013672"/>
     <use xlink:href="#DejaVuSans-29" x="107.421875"/>
    </g>
   </g>
  </g>
  <g id="axes_2">
   <g id="patch_7">
    <path d="M 247.782616 186.821395 
L 401.631755 186.821395 
L 401.631755 22.318125 
L 247.782616 22.318125 
z
" style="fill: #ffffff"/>
   </g>
   <g id="line2d_11">
    <path d="M 254.775759 179.343974 
L 280.408697 151.935942 
L 293.542067 137.89308 
L 302.43752 128.381612 
L 309.172775 121.179936 
L 314.594653 115.382591 
L 319.132729 110.53025 
L 323.035154 106.35758 
L 326.458317 102.697362 
L 329.507164 99.437381 
L 332.255547 96.498671 
L 334.757411 93.823552 
L 337.053362 91.368605 
L 339.174732 89.100328 
L 341.146206 86.992329 
L 342.987576 85.023444 
L 344.714955 83.176442 
L 346.341639 81.43711 
L 347.878723 79.793582 
L 349.335564 78.235854 
L 350.720127 76.755409 
L 352.039245 75.344941 
L 353.298828 73.998132 
L 354.504018 72.709482 
L 355.659319 71.474176 
L 356.768697 70.287973 
L 357.835665 69.147117 
L 358.863345 68.048269 
L 359.854529 66.988445 
L 360.81172 65.964968 
L 361.737173 64.975428 
L 362.632925 64.017644 
L 363.500823 63.089644 
L 364.342547 62.18963 
L 365.159631 61.315963 
L 365.953475 60.467144 
L 366.725365 59.6418 
L 367.476483 58.838667 
L 368.207918 58.056579 
L 368.920675 57.294464 
L 369.615684 56.551325 
L 370.293808 55.826241 
L 370.955847 55.118355 
L 371.602547 54.426871 
L 372.234603 53.751045 
L 372.852663 53.090183 
L 373.457334 52.443639 
L 374.049184 51.810803 
L 374.628744 51.191108 
L 375.196516 50.584018 
L 375.752968 49.989031 
L 376.298544 49.405674 
L 376.833661 48.8335 
L 377.358712 48.272089 
L 377.874068 47.721044 
L 378.380082 47.179988 
L 378.877086 46.648567 
L 379.365395 46.126442 
L 379.845308 45.613295 
L 380.317109 45.108821 
L 380.781069 44.612732 
L 381.237442 44.124755 
L 381.686474 43.644627 
L 382.128396 43.172101 
L 382.563431 42.70694 
L 382.99179 42.248917 
L 383.413674 41.797818 
L 383.829277 41.353434 
L 384.238782 40.91557 
L 384.642366 40.484038 
L 385.040199 40.058655 
L 385.43244 39.639251 
L 385.819246 39.225658 
L 386.200766 38.817718 
L 386.57714 38.41528 
L 386.948508 38.018195 
L 387.314999 37.626324 
L 387.676741 37.239531 
L 388.033854 36.857688 
L 388.386456 36.480667 
L 388.73466 36.10835 
L 389.078574 35.74062 
L 389.418302 35.377366 
L 389.753944 35.01848 
L 390.085599 34.663858 
L 390.413359 34.3134 
L 390.737316 33.96701 
L 391.057555 33.624593 
L 391.374163 33.286061 
L 391.687219 32.951325 
L 391.996803 32.620302 
L 392.302991 32.29291 
L 392.605857 31.969071 
L 392.905472 31.648707 
L 393.201906 31.331746 
L 393.495224 31.018115 
L 393.785492 30.707746 
L 394.072772 30.400571 
L 394.357126 30.096526 
L 394.638612 29.795546 
" clip-path="url(#pae8409d29f)" style="fill: none; stroke-dasharray: 5.55,2.4; stroke-dashoffset: 0; stroke: #d3d3d3; stroke-width: 1.5"/>
   </g>
   <g id="PathCollection_2">
    <g clip-path="url(#pae8409d29f)">
     <use xlink:href="#m26ee5c5223" x="254.775759" y="172.57565" style="stroke: #000000; stroke-width: 1.5"/>
     <use xlink:href="#m26ee5c5223" x="274.123713" y="153.142586" style="stroke: #000000; stroke-width: 1.5"/>
     <use xlink:href="#m26ee5c5223" x="293.471668" y="135.200584" style="stroke: #000000; stroke-width: 1.5"/>
     <use xlink:href="#m26ee5c5223" x="312.819622" y="117.445359" style="stroke: #000000; stroke-width: 1.5"/>
     <use xlink:href="#m26ee5c5223" x="332.167576" y="98.347276" style="stroke: #000000; stroke-width: 1.5"/>
     <use xlink:href="#m26ee5c5223" x="351.51553" y="81.849131" style="stroke: #000000; stroke-width: 1.5"/>
     <use xlink:href="#m26ee5c5223" x="370.863485" y="57.716938" style="stroke: #000000; stroke-width: 1.5"/>
     <use xlink:href="#m26ee5c5223" x="390.211439" y="31.083432" style="stroke: #000000; stroke-width: 1.5"/>
    </g>
   </g>
   <g id="matplotlib.axis_3">
    <g id="xtick_5">
     <g id="line2d_12">
      <g>
       <use xlink:href="#m11b09d6446" x="280.352363" y="186.821395" style="stroke: #000000; stroke-width: 0.8"/>
      </g>
     </g>
     <g id="text_13">
      <!-- $\mathdefault{10^{1}}$ -->
      <g transform="translate(271.552363 201.419833)scale(0.1 -0.1)">
       <use xlink:href="#DejaVuSans-31" transform="translate(0 0.684375)"/>
       <use xlink:href="#DejaVuSans-30" transform="translate(63.623047 0.684375)"/>
       <use xlink:href="#DejaVuSans-31" transform="translate(128.203125 38.965625)scale(0.7)"/>
      </g>
     </g>
    </g>
    <g id="xtick_6">
     <g id="line2d_13">
      <g>
       <use xlink:href="#m11b09d6446" x="344.624876" y="186.821395" style="stroke: #000000; stroke-width: 0.8"/>
      </g>
     </g>
     <g id="text_14">
      <!-- $\mathdefault{10^{2}}$ -->
      <g transform="translate(335.824876 201.419833)scale(0.1 -0.1)">
       <use xlink:href="#DejaVuSans-31" transform="translate(0 0.765625)"/>
       <use xlink:href="#DejaVuSans-30" transform="translate(63.623047 0.765625)"/>
       <use xlink:href="#DejaVuSans-32" transform="translate(128.203125 39.046875)scale(0.7)"/>
      </g>
     </g>
    </g>
    <g id="xtick_7">
     <g id="line2d_14">
      <defs>
       <path id="mc8a7cf7cc5" d="M 0 0 
L 0 2 
" style="stroke: #000000; stroke-width: 0.6"/>
      </defs>
      <g>
       <use xlink:href="#mc8a7cf7cc5" x="254.775759" y="186.821395" style="stroke: #000000; stroke-width: 0.6"/>
      </g>
     </g>
    </g>
    <g id="xtick_8">
     <g id="line2d_15">
      <g>
       <use xlink:href="#mc8a7cf7cc5" x="261.004409" y="186.821395" style="stroke: #000000; stroke-width: 0.6"/>
      </g>
     </g>
    </g>
    <g id="xtick_9">
     <g id="line2d_16">
      <g>
       <use xlink:href="#mc8a7cf7cc5" x="266.093587" y="186.821395" style="stroke: #000000; stroke-width: 0.6"/>
      </g>
     </g>
    </g>
    <g id="xtick_10">
     <g id="line2d_17">
      <g>
       <use xlink:href="#mc8a7cf7cc5" x="270.396425" y="186.821395" style="stroke: #000000; stroke-width: 0.6"/>
      </g>
     </g>
    </g>
    <g id="xtick_11">
     <g id="line2d_18">
      <g>
       <use xlink:href="#mc8a7cf7cc5" x="274.123713" y="186.821395" style="stroke: #000000; stroke-width: 0.6"/>
      </g>
     </g>
    </g>
    <g id="xtick_12">
     <g id="line2d_19">
      <g>
       <use xlink:href="#mc8a7cf7cc5" x="277.411414" y="186.821395" style="stroke: #000000; stroke-width: 0.6"/>
      </g>
     </g>
    </g>
    <g id="xtick_13">
     <g id="line2d_20">
      <g>
       <use xlink:href="#mc8a7cf7cc5" x="299.700318" y="186.821395" style="stroke: #000000; stroke-width: 0.6"/>
      </g>
     </g>
    </g>
    <g id="xtick_14">
     <g id="line2d_21">
      <g>
       <use xlink:href="#mc8a7cf7cc5" x="311.018145" y="186.821395" style="stroke: #000000; stroke-width: 0.6"/>
      </g>
     </g>
    </g>
    <g id="xtick_15">
     <g id="line2d_22">
      <g>
       <use xlink:href="#mc8a7cf7cc5" x="319.048272" y="186.821395" style="stroke: #000000; stroke-width: 0.6"/>
      </g>
     </g>
    </g>
    <g id="xtick_16">
     <g id="line2d_23">
      <g>
       <use xlink:href="#mc8a7cf7cc5" x="325.276922" y="186.821395" style="stroke: #000000; stroke-width: 0.6"/>
      </g>
     </g>
    </g>
    <g id="xtick_17">
     <g id="line2d_24">
      <g>
       <use xlink:href="#mc8a7cf7cc5" x="330.3661" y="186.821395" style="stroke: #000000; stroke-width: 0.6"/>
      </g>
     </g>
    </g>
    <g id="xtick_18">
     <g id="line2d_25">
      <g>
       <use xlink:href="#mc8a7cf7cc5" x="334.668938" y="186.821395" style="stroke: #000000; stroke-width: 0.6"/>
      </g>
     </g>
    </g>
    <g id="xtick_19">
     <g id="line2d_26">
      <g>
       <use xlink:href="#mc8a7cf7cc5" x="338.396226" y="186.821395" style="stroke: #000000; stroke-width: 0.6"/>
      </g>
     </g>
    </g>
    <g id="xtick_20">
     <g id="line2d_27">
      <g>
       <use xlink:href="#mc8a7cf7cc5" x="341.683927" y="186.821395" style="stroke: #000000; stroke-width: 0.6"/>
      </g>
     </g>
    </g>
    <g id="xtick_21">
     <g id="line2d_28">
      <g>
       <use xlink:href="#mc8a7cf7cc5" x="363.97283" y="186.821395" style="stroke: #000000; stroke-width: 0.6"/>
      </g>
     </g>
    </g>
    <g id="xtick_22">
     <g id="line2d_29">
      <g>
       <use xlink:href="#mc8a7cf7cc5" x="375.290658" y="186.821395" style="stroke: #000000; stroke-width: 0.6"/>
      </g>
     </g>
    </g>
    <g id="xtick_23">
     <g id="line2d_30">
      <g>
       <use xlink:href="#mc8a7cf7cc5" x="383.320785" y="186.821395" style="stroke: #000000; stroke-width: 0.6"/>
      </g>
     </g>
    </g>
    <g id="xtick_24">
     <g id="line2d_31">
      <g>
       <use xlink:href="#mc8a7cf7cc5" x="389.549435" y="186.821395" style="stroke: #000000; stroke-width: 0.6"/>
      </g>
     </g>
    </g>
    <g id="xtick_25">
     <g id="line2d_32">
      <g>
       <use xlink:href="#mc8a7cf7cc5" x="394.638612" y="186.821395" style="stroke: #000000; stroke-width: 0.6"/>
      </g>
     </g>
    </g>
    <g id="xtick_26">
     <g id="line2d_33">
      <g>
       <use xlink:href="#mc8a7cf7cc5" x="398.941451" y="186.821395" style="stroke: #000000; stroke-width: 0.6"/>
      </g>
     </g>
    </g>
    <g id="text_15">
     <!-- System Length, $L$ -->
     <g transform="translate(281.157186 215.09952)scale(0.1 -0.1)">
      <use xlink:href="#DejaVuSans-53" transform="translate(0 0.015625)"/>
      <use xlink:href="#DejaVuSans-79" transform="translate(63.476562 0.015625)"/>
      <use xlink:href="#DejaVuSans-73" transform="translate(122.65625 0.015625)"/>
      <use xlink:href="#DejaVuSans-74" transform="translate(174.755859 0.015625)"/>
      <use xlink:href="#DejaVuSans-65" transform="translate(213.964844 0.015625)"/>
      <use xlink:href="#DejaVuSans-6d" transform="translate(275.488281 0.015625)"/>
      <use xlink:href="#DejaVuSans-20" transform="translate(372.900391 0.015625)"/>
      <use xlink:href="#DejaVuSans-4c" transform="translate(404.6875 0.015625)"/>
      <use xlink:href="#DejaVuSans-65" transform="translate(460.400391 0.015625)"/>
      <use xlink:href="#DejaVuSans-6e" transform="translate(521.923828 0.015625)"/>
      <use xlink:href="#DejaVuSans-67" transform="translate(585.302734 0.015625)"/>
      <use xlink:href="#DejaVuSans-74" transform="translate(648.779297 0.015625)"/>
      <use xlink:href="#DejaVuSans-68" transform="translate(687.988281 0.015625)"/>
      <use xlink:href="#DejaVuSans-2c" transform="translate(751.367188 0.015625)"/>
      <use xlink:href="#DejaVuSans-20" transform="translate(783.154297 0.015625)"/>
      <use xlink:href="#DejaVuSans-Oblique-4c" transform="translate(814.941406 0.015625)"/>
     </g>
    </g>
   </g>
   <g id="matplotlib.axis_4">
    <g id="ytick_6">
     <g id="line2d_34">
      <g>
       <use xlink:href="#mee5892e080" x="247.782616" y="148.79177" style="stroke: #000000; stroke-width: 0.8"/>
      </g>
     </g>
     <g id="text_16">
      <!-- $\mathdefault{10^{0}}$ -->
      <g transform="translate(223.182616 152.590989)scale(0.1 -0.1)">
       <use xlink:href="#DejaVuSans-31" transform="translate(0 0.765625)"/>
       <use xlink:href="#DejaVuSans-30" transform="translate(63.623047 0.765625)"/>
       <use xlink:href="#DejaVuSans-30" transform="translate(128.203125 39.046875)scale(0.7)"/>
      </g>
     </g>
    </g>
    <g id="ytick_7">
     <g id="line2d_35">
      <defs>
       <path id="mc185a92464" d="M 0 0 
L -2 0 
" style="stroke: #000000; stroke-width: 0.6"/>
      </defs>
      <g>
       <use xlink:href="#mc185a92464" x="247.782616" y="172.96114" style="stroke: #000000; stroke-width: 0.6"/>
      </g>
     </g>
    </g>
    <g id="ytick_8">
     <g id="line2d_36">
      <g>
       <use xlink:href="#mc185a92464" x="247.782616" y="160.203694" style="stroke: #000000; stroke-width: 0.6"/>
      </g>
     </g>
    </g>
    <g id="ytick_9">
     <g id="line2d_37">
      <g>
       <use xlink:href="#mc185a92464" x="247.782616" y="73.714851" style="stroke: #000000; stroke-width: 0.6"/>
      </g>
     </g>
     <g id="text_17">
      <!-- $\mathdefault{2\times10^{0}}$ -->
      <g transform="translate(206.182616 77.51407)scale(0.1 -0.1)">
       <defs>
        <path id="DejaVuSans-d7" d="M 4488 3438 
L 3059 2003 
L 4488 575 
L 4116 197 
L 2681 1631 
L 1247 197 
L 878 575 
L 2303 2003 
L 878 3438 
L 1247 3816 
L 2681 2381 
L 4116 3816 
L 4488 3438 
z
" transform="scale(0.015625)"/>
       </defs>
       <use xlink:href="#DejaVuSans-32" transform="translate(0 0.765625)"/>
       <use xlink:href="#DejaVuSans-d7" transform="translate(83.105469 0.765625)"/>
       <use xlink:href="#DejaVuSans-31" transform="translate(186.376953 0.765625)"/>
       <use xlink:href="#DejaVuSans-30" transform="translate(250 0.765625)"/>
       <use xlink:href="#DejaVuSans-30" transform="translate(314.580078 39.046875)scale(0.7)"/>
      </g>
     </g>
    </g>
    <g id="ytick_10">
     <g id="line2d_38">
      <g>
       <use xlink:href="#mc185a92464" x="247.782616" y="29.797669" style="stroke: #000000; stroke-width: 0.6"/>
      </g>
     </g>
     <g id="text_18">
      <!-- $\mathdefault{3\times10^{0}}$ -->
      <g transform="translate(206.182616 33.596888)scale(0.1 -0.1)">
       <use xlink:href="#DejaVuSans-33" transform="translate(0 0.765625)"/>
       <use xlink:href="#DejaVuSans-d7" transform="translate(83.105469 0.765625)"/>
       <use xlink:href="#DejaVuSans-31" transform="translate(186.376953 0.765625)"/>
       <use xlink:href="#DejaVuSans-30" transform="translate(250 0.765625)"/>
       <use xlink:href="#DejaVuSans-30" transform="translate(314.580078 39.046875)scale(0.7)"/>
      </g>
     </g>
    </g>
   </g>
   <g id="patch_8">
    <path d="M 247.782616 186.821395 
L 247.782616 22.318125 
" style="fill: none; stroke: #000000; stroke-width: 0.8; stroke-linejoin: miter; stroke-linecap: square"/>
   </g>
   <g id="patch_9">
    <path d="M 401.631755 186.821395 
L 401.631755 22.318125 
" style="fill: none; stroke: #000000; stroke-width: 0.8; stroke-linejoin: miter; stroke-linecap: square"/>
   </g>
   <g id="patch_10">
    <path d="M 247.782616 186.821395 
L 401.631755 186.821395 
" style="fill: none; stroke: #000000; stroke-width: 0.8; stroke-linejoin: miter; stroke-linecap: square"/>
   </g>
   <g id="patch_11">
    <path d="M 247.782616 22.318125 
L 401.631755 22.318125 
" style="fill: none; stroke: #000000; stroke-width: 0.8; stroke-linejoin: miter; stroke-linecap: square"/>
   </g>
   <g id="text_19">
    <!-- (B) -->
    <g transform="translate(315.908748 16.318125)scale(0.12 -0.12)">
     <defs>
      <path id="DejaVuSans-42" d="M 1259 2228 
L 1259 519 
L 2272 519 
Q 2781 519 3026 730 
Q 3272 941 3272 1375 
Q 3272 1813 3026 2020 
Q 2781 2228 2272 2228 
L 1259 2228 
z
M 1259 4147 
L 1259 2741 
L 2194 2741 
Q 2656 2741 2882 2914 
Q 3109 3088 3109 3444 
Q 3109 3797 2882 3972 
Q 2656 4147 2194 4147 
L 1259 4147 
z
M 628 4666 
L 2241 4666 
Q 2963 4666 3353 4366 
Q 3744 4066 3744 3513 
Q 3744 3084 3544 2831 
Q 3344 2578 2956 2516 
Q 3422 2416 3680 2098 
Q 3938 1781 3938 1306 
Q 3938 681 3513 340 
Q 3088 0 2303 0 
L 628 0 
L 628 4666 
z
" transform="scale(0.015625)"/>
     </defs>
     <use xlink:href="#DejaVuSans-28"/>
     <use xlink:href="#DejaVuSans-42" x="39.013672"/>
     <use xlink:href="#DejaVuSans-29" x="107.617188"/>
    </g>
   </g>
   <g id="legend_1">
    <g id="patch_12">
     <path d="M 411.324212 54.674375 
L 467.200774 54.674375 
Q 469.200774 54.674375 469.200774 52.674375 
L 469.200774 24.318125 
Q 469.200774 22.318125 467.200774 22.318125 
L 411.324212 22.318125 
Q 409.324212 22.318125 409.324212 24.318125 
L 409.324212 52.674375 
Q 409.324212 54.674375 411.324212 54.674375 
z
" style="fill: #ffffff; opacity: 0.8; stroke: #cccccc; stroke-linejoin: miter"/>
    </g>
    <g id="PathCollection_3">
     <g>
      <use xlink:href="#m26ee5c5223" x="423.324212" y="31.291563" style="stroke: #000000; stroke-width: 1.5"/>
     </g>
    </g>
    <g id="text_20">
     <!-- Data -->
     <g transform="translate(441.324212 33.916563)scale(0.1 -0.1)">
      <use xlink:href="#DejaVuSans-44"/>
      <use xlink:href="#DejaVuSans-61" x="77.001953"/>
      <use xlink:href="#DejaVuSans-74" x="138.28125"/>
      <use xlink:href="#DejaVuSans-61" x="177.490234"/>
     </g>
    </g>
    <g id="line2d_39">
     <path d="M 413.324212 45.094688 
L 423.324212 45.094688 
L 433.324212 45.094688 
" style="fill: none; stroke-dasharray: 5.55,2.4; stroke-dashoffset: 0; stroke: #d3d3d3; stroke-width: 1.5"/>
    </g>
    <g id="text_21">
     <!-- Fit -->
     <g transform="translate(441.324212 48.594688)scale(0.1 -0.1)">
      <defs>
       <path id="DejaVuSans-46" d="M 628 4666 
L 3309 4666 
L 3309 4134 
L 1259 4134 
L 1259 2759 
L 3109 2759 
L 3109 2228 
L 1259 2228 
L 1259 0 
L 628 0 
L 628 4666 
z
" transform="scale(0.015625)"/>
      </defs>
      <use xlink:href="#DejaVuSans-46"/>
      <use xlink:href="#DejaVuSans-69" x="50.269531"/>
      <use xlink:href="#DejaVuSans-74" x="78.052734"/>
     </g>
    </g>
   </g>
  </g>
 </g>
 <defs>
  <clipPath id="p4cce92538b">
   <rect x="43.78125" y="22.318125" width="153.849139" height="164.50327"/>
  </clipPath>
  <clipPath id="pae8409d29f">
   <rect x="247.782616" y="22.318125" width="153.849139" height="164.50327"/>
  </clipPath>
 </defs>
</svg>
