<?xml version="1.0" encoding="utf-8" standalone="no"?>
<!DOCTYPE svg PUBLIC "-//W3C//DTD SVG 1.1//EN"
  "http://www.w3.org/Graphics/SVG/1.1/DTD/svg11.dtd">
<svg xmlns:xlink="http://www.w3.org/1999/xlink" width="476.425781pt" height="224.39952pt" viewBox="0 0 476.425781 224.39952" xmlns="http://www.w3.org/2000/svg" version="1.1">
 <metadata>
  <rdf:RDF xmlns:dc="http://purl.org/dc/elements/1.1/" xmlns:cc="http://creativecommons.org/ns#" xmlns:rdf="http://www.w3.org/1999/02/22-rdf-syntax-ns#">
   <cc:Work>
    <dc:type rdf:resource="http://purl.org/dc/dcmitype/StillImage"/>
    <dc:date>2023-02-15T11:02:48.392896</dc:date>
    <dc:format>image/svg+xml</dc:format>
    <dc:creator>
     <cc:Agent>
      <dc:title>Matplotlib v3.6.1, https://matplotlib.org/</dc:title>
     </cc:Agent>
    </dc:creator>
   </cc:Work>
  </rdf:RDF>
 </metadata>
 <defs>
  <style type="text/css">*{stroke-linejoin: round; stroke-linecap: butt}</style>
 </defs>
 <g id="figure_1">
  <g id="patch_1">
   <path d="M 0 224.39952 
L 476.425781 224.39952 
L 476.425781 0 
L 0 0 
z
" style="fill: #ffffff"/>
  </g>
  <g id="axes_1">
   <g id="patch_2">
    <path d="M 43.78125 186.821395 
L 396.502231 186.821395 
L 396.502231 10.999219 
L 43.78125 10.999219 
z
" style="fill: #ffffff"/>
   </g>
   <g id="patch_3">
    <path d="M 368.540413 186.821395 
L 368.905927 186.821395 
L 368.905927 186.81612 
L 368.540413 186.81612 
z
" clip-path="url(#paec4b4e42d)" style="fill: #1f77b4; opacity: 0.1"/>
   </g>
   <g id="patch_4">
    <path d="M 368.905927 186.821395 
L 369.271441 186.821395 
L 369.271441 186.761967 
L 368.905927 186.761967 
z
" clip-path="url(#paec4b4e42d)" style="fill: #1f77b4; opacity: 0.1"/>
   </g>
   <g id="patch_5">
    <path d="M 369.271441 186.821395 
L 369.636955 186.821395 
L 369.636955 186.464124 
L 369.271441 186.464124 
z
" clip-path="url(#paec4b4e42d)" style="fill: #1f77b4; opacity: 0.1"/>
   </g>
   <g id="patch_6">
    <path d="M 369.636955 186.821395 
L 370.002469 186.821395 
L 370.002469 185.198556 
L 369.636955 185.198556 
z
" clip-path="url(#paec4b4e42d)" style="fill: #1f77b4; opacity: 0.1"/>
   </g>
   <g id="patch_7">
    <path d="M 370.002469 186.821395 
L 370.367983 186.821395 
L 370.367983 181.553059 
L 370.002469 181.553059 
z
" clip-path="url(#paec4b4e42d)" style="fill: #1f77b4; opacity: 0.1"/>
   </g>
   <g id="patch_8">
    <path d="M 370.367983 186.821395 
L 370.733497 186.821395 
L 370.733497 173.581985 
L 370.367983 173.581985 
z
" clip-path="url(#paec4b4e42d)" style="fill: #1f77b4; opacity: 0.1"/>
   </g>
   <g id="patch_9">
    <path d="M 370.733497 186.821395 
L 371.099011 186.821395 
L 371.099011 161.250169 
L 370.733497 161.250169 
z
" clip-path="url(#paec4b4e42d)" style="fill: #1f77b4; opacity: 0.1"/>
   </g>
   <g id="patch_10">
    <path d="M 371.099011 186.821395 
L 371.464525 186.821395 
L 371.464525 146.810246 
L 371.099011 146.810246 
z
" clip-path="url(#paec4b4e42d)" style="fill: #1f77b4; opacity: 0.1"/>
   </g>
   <g id="patch_11">
    <path d="M 371.464525 186.821395 
L 371.830038 186.821395 
L 371.830038 135.322376 
L 371.464525 135.322376 
z
" clip-path="url(#paec4b4e42d)" style="fill: #1f77b4; opacity: 0.1"/>
   </g>
   <g id="patch_12">
    <path d="M 371.830038 186.821395 
L 372.195552 186.821395 
L 372.195552 131.550639 
L 371.830038 131.550639 
z
" clip-path="url(#paec4b4e42d)" style="fill: #1f77b4; opacity: 0.1"/>
   </g>
   <g id="patch_13">
    <path d="M 372.195552 186.821395 
L 372.561066 186.821395 
L 372.561066 136.071379 
L 372.195552 136.071379 
z
" clip-path="url(#paec4b4e42d)" style="fill: #1f77b4; opacity: 0.1"/>
   </g>
   <g id="patch_14">
    <path d="M 372.561066 186.821395 
L 372.92658 186.821395 
L 372.92658 146.557765 
L 372.561066 146.557765 
z
" clip-path="url(#paec4b4e42d)" style="fill: #1f77b4; opacity: 0.1"/>
   </g>
   <g id="patch_15">
    <path d="M 372.92658 186.821395 
L 373.292094 186.821395 
L 373.292094 158.521058 
L 372.92658 158.521058 
z
" clip-path="url(#paec4b4e42d)" style="fill: #1f77b4; opacity: 0.1"/>
   </g>
   <g id="patch_16">
    <path d="M 373.292094 186.821395 
L 373.657608 186.821395 
L 373.657608 168.658261 
L 373.292094 168.658261 
z
" clip-path="url(#paec4b4e42d)" style="fill: #1f77b4; opacity: 0.1"/>
   </g>
   <g id="patch_17">
    <path d="M 373.657608 186.821395 
L 374.023122 186.821395 
L 374.023122 176.251669 
L 373.657608 176.251669 
z
" clip-path="url(#paec4b4e42d)" style="fill: #1f77b4; opacity: 0.1"/>
   </g>
   <g id="patch_18">
    <path d="M 374.023122 186.821395 
L 374.388636 186.821395 
L 374.388636 181.217239 
L 374.023122 181.217239 
z
" clip-path="url(#paec4b4e42d)" style="fill: #1f77b4; opacity: 0.1"/>
   </g>
   <g id="patch_19">
    <path d="M 374.388636 186.821395 
L 374.75415 186.821395 
L 374.75415 184.021251 
L 374.388636 184.021251 
z
" clip-path="url(#paec4b4e42d)" style="fill: #1f77b4; opacity: 0.1"/>
   </g>
   <g id="patch_20">
    <path d="M 374.75415 186.821395 
L 375.119664 186.821395 
L 375.119664 185.531915 
L 374.75415 185.531915 
z
" clip-path="url(#paec4b4e42d)" style="fill: #1f77b4; opacity: 0.1"/>
   </g>
   <g id="patch_21">
    <path d="M 375.119664 186.821395 
L 375.485178 186.821395 
L 375.485178 186.235204 
L 375.119664 186.235204 
z
" clip-path="url(#paec4b4e42d)" style="fill: #1f77b4; opacity: 0.1"/>
   </g>
   <g id="patch_22">
    <path d="M 375.485178 186.821395 
L 375.850692 186.821395 
L 375.850692 186.584035 
L 375.485178 186.584035 
z
" clip-path="url(#paec4b4e42d)" style="fill: #1f77b4; opacity: 0.1"/>
   </g>
   <g id="patch_23">
    <path d="M 375.850692 186.821395 
L 376.216206 186.821395 
L 376.216206 186.71977 
L 375.850692 186.71977 
z
" clip-path="url(#paec4b4e42d)" style="fill: #1f77b4; opacity: 0.1"/>
   </g>
   <g id="patch_24">
    <path d="M 376.216206 186.821395 
L 376.58172 186.821395 
L 376.58172 186.771813 
L 376.216206 186.771813 
z
" clip-path="url(#paec4b4e42d)" style="fill: #1f77b4; opacity: 0.1"/>
   </g>
   <g id="patch_25">
    <path d="M 376.58172 186.821395 
L 376.947234 186.821395 
L 376.947234 186.804516 
L 376.58172 186.804516 
z
" clip-path="url(#paec4b4e42d)" style="fill: #1f77b4; opacity: 0.1"/>
   </g>
   <g id="patch_26">
    <path d="M 376.947234 186.821395 
L 377.312748 186.821395 
L 377.312748 186.816472 
L 376.947234 186.816472 
z
" clip-path="url(#paec4b4e42d)" style="fill: #1f77b4; opacity: 0.1"/>
   </g>
   <g id="patch_27">
    <path d="M 377.312748 186.821395 
L 377.678262 186.821395 
L 377.678262 186.818933 
L 377.312748 186.818933 
z
" clip-path="url(#paec4b4e42d)" style="fill: #1f77b4; opacity: 0.1"/>
   </g>
   <g id="patch_28">
    <path d="M 206.983238 186.821395 
L 207.348752 186.821395 
L 207.348752 186.821043 
L 206.983238 186.821043 
z
" clip-path="url(#paec4b4e42d)" style="fill: #ff7f0e; opacity: 0.1"/>
   </g>
   <g id="patch_29">
    <path d="M 207.348752 186.821395 
L 207.714266 186.821395 
L 207.714266 186.806626 
L 207.348752 186.806626 
z
" clip-path="url(#paec4b4e42d)" style="fill: #ff7f0e; opacity: 0.1"/>
   </g>
   <g id="patch_30">
    <path d="M 207.714266 186.821395 
L 208.07978 186.821395 
L 208.07978 186.596694 
L 207.714266 186.596694 
z
" clip-path="url(#paec4b4e42d)" style="fill: #ff7f0e; opacity: 0.1"/>
   </g>
   <g id="patch_31">
    <path d="M 208.07978 186.821395 
L 208.445294 186.821395 
L 208.445294 185.311083 
L 208.07978 185.311083 
z
" clip-path="url(#paec4b4e42d)" style="fill: #ff7f0e; opacity: 0.1"/>
   </g>
   <g id="patch_32">
    <path d="M 208.445294 186.821395 
L 208.810808 186.821395 
L 208.810808 180.489687 
L 208.445294 180.489687 
z
" clip-path="url(#paec4b4e42d)" style="fill: #ff7f0e; opacity: 0.1"/>
   </g>
   <g id="patch_33">
    <path d="M 208.810808 186.821395 
L 209.176322 186.821395 
L 209.176322 168.499669 
L 208.810808 168.499669 
z
" clip-path="url(#paec4b4e42d)" style="fill: #ff7f0e; opacity: 0.1"/>
   </g>
   <g id="patch_34">
    <path d="M 209.176322 186.821395 
L 209.541836 186.821395 
L 209.541836 150.141021 
L 209.176322 150.141021 
z
" clip-path="url(#paec4b4e42d)" style="fill: #ff7f0e; opacity: 0.1"/>
   </g>
   <g id="patch_35">
    <path d="M 209.541836 186.821395 
L 209.90735 186.821395 
L 209.90735 131.778153 
L 209.541836 131.778153 
z
" clip-path="url(#paec4b4e42d)" style="fill: #ff7f0e; opacity: 0.1"/>
   </g>
   <g id="patch_36">
    <path d="M 209.90735 186.821395 
L 210.272864 186.821395 
L 210.272864 122.271096 
L 209.90735 122.271096 
z
" clip-path="url(#paec4b4e42d)" style="fill: #ff7f0e; opacity: 0.1"/>
   </g>
   <g id="patch_37">
    <path d="M 210.272864 186.821395 
L 210.638378 186.821395 
L 210.638378 126.162744 
L 210.272864 126.162744 
z
" clip-path="url(#paec4b4e42d)" style="fill: #ff7f0e; opacity: 0.1"/>
   </g>
   <g id="patch_38">
    <path d="M 210.638378 186.821395 
L 211.003891 186.821395 
L 211.003891 140.466582 
L 210.638378 140.466582 
z
" clip-path="url(#paec4b4e42d)" style="fill: #ff7f0e; opacity: 0.1"/>
   </g>
   <g id="patch_39">
    <path d="M 211.003891 186.821395 
L 211.369405 186.821395 
L 211.369405 156.577519 
L 211.003891 156.577519 
z
" clip-path="url(#paec4b4e42d)" style="fill: #ff7f0e; opacity: 0.1"/>
   </g>
   <g id="patch_40">
    <path d="M 211.369405 186.821395 
L 211.734919 186.821395 
L 211.734919 169.883741 
L 211.369405 169.883741 
z
" clip-path="url(#paec4b4e42d)" style="fill: #ff7f0e; opacity: 0.1"/>
   </g>
   <g id="patch_41">
    <path d="M 211.734919 186.821395 
L 212.100433 186.821395 
L 212.100433 178.369271 
L 211.734919 178.369271 
z
" clip-path="url(#paec4b4e42d)" style="fill: #ff7f0e; opacity: 0.1"/>
   </g>
   <g id="patch_42">
    <path d="M 212.100433 186.821395 
L 212.465947 186.821395 
L 212.465947 182.949791 
L 212.100433 182.949791 
z
" clip-path="url(#paec4b4e42d)" style="fill: #ff7f0e; opacity: 0.1"/>
   </g>
   <g id="patch_43">
    <path d="M 212.465947 186.821395 
L 212.831461 186.821395 
L 212.831461 185.238995 
L 212.465947 185.238995 
z
" clip-path="url(#paec4b4e42d)" style="fill: #ff7f0e; opacity: 0.1"/>
   </g>
   <g id="patch_44">
    <path d="M 212.831461 186.821395 
L 213.196975 186.821395 
L 213.196975 186.234149 
L 212.831461 186.234149 
z
" clip-path="url(#paec4b4e42d)" style="fill: #ff7f0e; opacity: 0.1"/>
   </g>
   <g id="patch_45">
    <path d="M 213.196975 186.821395 
L 213.562489 186.821395 
L 213.562489 186.619903 
L 213.196975 186.619903 
z
" clip-path="url(#paec4b4e42d)" style="fill: #ff7f0e; opacity: 0.1"/>
   </g>
   <g id="patch_46">
    <path d="M 213.562489 186.821395 
L 213.928003 186.821395 
L 213.928003 186.76267 
L 213.562489 186.76267 
z
" clip-path="url(#paec4b4e42d)" style="fill: #ff7f0e; opacity: 0.1"/>
   </g>
   <g id="patch_47">
    <path d="M 213.928003 186.821395 
L 214.293517 186.821395 
L 214.293517 186.807681 
L 213.928003 186.807681 
z
" clip-path="url(#paec4b4e42d)" style="fill: #ff7f0e; opacity: 0.1"/>
   </g>
   <g id="patch_48">
    <path d="M 214.293517 186.821395 
L 214.659031 186.821395 
L 214.659031 186.817527 
L 214.293517 186.817527 
z
" clip-path="url(#paec4b4e42d)" style="fill: #ff7f0e; opacity: 0.1"/>
   </g>
   <g id="patch_49">
    <path d="M 214.659031 186.821395 
L 215.024545 186.821395 
L 215.024545 186.820692 
L 214.659031 186.820692 
z
" clip-path="url(#paec4b4e42d)" style="fill: #ff7f0e; opacity: 0.1"/>
   </g>
   <g id="patch_50">
    <path d="M 126.570164 186.821395 
L 126.935678 186.821395 
L 126.935678 186.82034 
L 126.570164 186.82034 
z
" clip-path="url(#paec4b4e42d)" style="fill: #2ca02c; opacity: 0.1"/>
   </g>
   <g id="patch_51">
    <path d="M 126.935678 186.821395 
L 127.301192 186.821395 
L 127.301192 186.776736 
L 126.935678 186.776736 
z
" clip-path="url(#paec4b4e42d)" style="fill: #2ca02c; opacity: 0.1"/>
   </g>
   <g id="patch_52">
    <path d="M 127.301192 186.821395 
L 127.666706 186.821395 
L 127.666706 186.318544 
L 127.301192 186.318544 
z
" clip-path="url(#paec4b4e42d)" style="fill: #2ca02c; opacity: 0.1"/>
   </g>
   <g id="patch_53">
    <path d="M 127.666706 186.821395 
L 128.03222 186.821395 
L 128.03222 183.19137 
L 127.666706 183.19137 
z
" clip-path="url(#paec4b4e42d)" style="fill: #2ca02c; opacity: 0.1"/>
   </g>
   <g id="patch_54">
    <path d="M 128.03222 186.821395 
L 128.397734 186.821395 
L 128.397734 171.728468 
L 128.03222 171.728468 
z
" clip-path="url(#paec4b4e42d)" style="fill: #2ca02c; opacity: 0.1"/>
   </g>
   <g id="patch_55">
    <path d="M 128.397734 186.821395 
L 128.763248 186.821395 
L 128.763248 148.212955 
L 128.397734 148.212955 
z
" clip-path="url(#paec4b4e42d)" style="fill: #2ca02c; opacity: 0.1"/>
   </g>
   <g id="patch_56">
    <path d="M 128.763248 186.821395 
L 129.128762 186.821395 
L 129.128762 121.824156 
L 128.763248 121.824156 
z
" clip-path="url(#paec4b4e42d)" style="fill: #2ca02c; opacity: 0.1"/>
   </g>
   <g id="patch_57">
    <path d="M 129.128762 186.821395 
L 129.494276 186.821395 
L 129.494276 110.351408 
L 129.128762 110.351408 
z
" clip-path="url(#paec4b4e42d)" style="fill: #2ca02c; opacity: 0.1"/>
   </g>
   <g id="patch_58">
    <path d="M 129.494276 186.821395 
L 129.85979 186.821395 
L 129.85979 120.43059 
L 129.494276 120.43059 
z
" clip-path="url(#paec4b4e42d)" style="fill: #2ca02c; opacity: 0.1"/>
   </g>
   <g id="patch_59">
    <path d="M 129.85979 186.821395 
L 130.225304 186.821395 
L 130.225304 142.140057 
L 129.85979 142.140057 
z
" clip-path="url(#paec4b4e42d)" style="fill: #2ca02c; opacity: 0.1"/>
   </g>
   <g id="patch_60">
    <path d="M 130.225304 186.821395 
L 130.590818 186.821395 
L 130.590818 162.76224 
L 130.225304 162.76224 
z
" clip-path="url(#paec4b4e42d)" style="fill: #2ca02c; opacity: 0.1"/>
   </g>
   <g id="patch_61">
    <path d="M 130.590818 186.821395 
L 130.956332 186.821395 
L 130.956332 175.862047 
L 130.590818 175.862047 
z
" clip-path="url(#paec4b4e42d)" style="fill: #2ca02c; opacity: 0.1"/>
   </g>
   <g id="patch_62">
    <path d="M 130.956332 186.821395 
L 131.321846 186.821395 
L 131.321846 182.61819 
L 130.956332 182.61819 
z
" clip-path="url(#paec4b4e42d)" style="fill: #2ca02c; opacity: 0.1"/>
   </g>
   <g id="patch_63">
    <path d="M 131.321846 186.821395 
L 131.68736 186.821395 
L 131.68736 185.38106 
L 131.321846 185.38106 
z
" clip-path="url(#paec4b4e42d)" style="fill: #2ca02c; opacity: 0.1"/>
   </g>
   <g id="patch_64">
    <path d="M 131.68736 186.821395 
L 132.052874 186.821395 
L 132.052874 186.394499 
L 131.68736 186.394499 
z
" clip-path="url(#paec4b4e42d)" style="fill: #2ca02c; opacity: 0.1"/>
   </g>
   <g id="patch_65">
    <path d="M 132.052874 186.821395 
L 132.418388 186.821395 
L 132.418388 186.708869 
L 132.052874 186.708869 
z
" clip-path="url(#paec4b4e42d)" style="fill: #2ca02c; opacity: 0.1"/>
   </g>
   <g id="patch_66">
    <path d="M 132.418388 186.821395 
L 132.783902 186.821395 
L 132.783902 186.801 
L 132.418388 186.801 
z
" clip-path="url(#paec4b4e42d)" style="fill: #2ca02c; opacity: 0.1"/>
   </g>
   <g id="patch_67">
    <path d="M 132.783902 186.821395 
L 133.149416 186.821395 
L 133.149416 186.818933 
L 132.783902 186.818933 
z
" clip-path="url(#paec4b4e42d)" style="fill: #2ca02c; opacity: 0.1"/>
   </g>
   <g id="patch_68">
    <path d="M 133.149416 186.821395 
L 133.51493 186.821395 
L 133.51493 186.820692 
L 133.149416 186.820692 
z
" clip-path="url(#paec4b4e42d)" style="fill: #2ca02c; opacity: 0.1"/>
   </g>
   <g id="patch_69">
    <path d="M 86.729142 186.821395 
L 87.094656 186.821395 
L 87.094656 186.816824 
L 86.729142 186.816824 
z
" clip-path="url(#paec4b4e42d)" style="fill: #d62728; opacity: 0.1"/>
   </g>
   <g id="patch_70">
    <path d="M 87.094656 186.821395 
L 87.460169 186.821395 
L 87.460169 186.599859 
L 87.094656 186.599859 
z
" clip-path="url(#paec4b4e42d)" style="fill: #d62728; opacity: 0.1"/>
   </g>
   <g id="patch_71">
    <path d="M 87.460169 186.821395 
L 87.825683 186.821395 
L 87.825683 184.041295 
L 87.460169 184.041295 
z
" clip-path="url(#paec4b4e42d)" style="fill: #d62728; opacity: 0.1"/>
   </g>
   <g id="patch_72">
    <path d="M 87.825683 186.821395 
L 88.191197 186.821395 
L 88.191197 171.139463 
L 87.825683 171.139463 
z
" clip-path="url(#paec4b4e42d)" style="fill: #d62728; opacity: 0.1"/>
   </g>
   <g id="patch_73">
    <path d="M 88.191197 186.821395 
L 88.556711 186.821395 
L 88.556711 139.745359 
L 88.191197 139.745359 
z
" clip-path="url(#paec4b4e42d)" style="fill: #d62728; opacity: 0.1"/>
   </g>
   <g id="patch_74">
    <path d="M 88.556711 186.821395 
L 88.922225 186.821395 
L 88.922225 105.81836 
L 88.556711 105.81836 
z
" clip-path="url(#paec4b4e42d)" style="fill: #d62728; opacity: 0.1"/>
   </g>
   <g id="patch_75">
    <path d="M 88.922225 186.821395 
L 89.287739 186.821395 
L 89.287739 98.691584 
L 88.922225 98.691584 
z
" clip-path="url(#paec4b4e42d)" style="fill: #d62728; opacity: 0.1"/>
   </g>
   <g id="patch_76">
    <path d="M 89.287739 186.821395 
L 89.653253 186.821395 
L 89.653253 122.412106 
L 89.287739 122.412106 
z
" clip-path="url(#paec4b4e42d)" style="fill: #d62728; opacity: 0.1"/>
   </g>
   <g id="patch_77">
    <path d="M 89.653253 186.821395 
L 90.018767 186.821395 
L 90.018767 153.07057 
L 89.653253 153.07057 
z
" clip-path="url(#paec4b4e42d)" style="fill: #d62728; opacity: 0.1"/>
   </g>
   <g id="patch_78">
    <path d="M 90.018767 186.821395 
L 90.384281 186.821395 
L 90.384281 173.500755 
L 90.018767 173.500755 
z
" clip-path="url(#paec4b4e42d)" style="fill: #d62728; opacity: 0.1"/>
   </g>
   <g id="patch_79">
    <path d="M 90.384281 186.821395 
L 90.749795 186.821395 
L 90.749795 182.800342 
L 90.384281 182.800342 
z
" clip-path="url(#paec4b4e42d)" style="fill: #d62728; opacity: 0.1"/>
   </g>
   <g id="patch_80">
    <path d="M 90.749795 186.821395 
L 91.115309 186.821395 
L 91.115309 185.822725 
L 90.749795 185.822725 
z
" clip-path="url(#paec4b4e42d)" style="fill: #d62728; opacity: 0.1"/>
   </g>
   <g id="patch_81">
    <path d="M 91.115309 186.821395 
L 91.480823 186.821395 
L 91.480823 186.611463 
L 91.115309 186.611463 
z
" clip-path="url(#paec4b4e42d)" style="fill: #d62728; opacity: 0.1"/>
   </g>
   <g id="patch_82">
    <path d="M 91.480823 186.821395 
L 91.846337 186.821395 
L 91.846337 186.789395 
L 91.480823 186.789395 
z
" clip-path="url(#paec4b4e42d)" style="fill: #d62728; opacity: 0.1"/>
   </g>
   <g id="patch_83">
    <path d="M 91.846337 186.821395 
L 92.211851 186.821395 
L 92.211851 186.817175 
L 91.846337 186.817175 
z
" clip-path="url(#paec4b4e42d)" style="fill: #d62728; opacity: 0.1"/>
   </g>
   <g id="patch_84">
    <path d="M 92.211851 186.821395 
L 92.577365 186.821395 
L 92.577365 186.820692 
L 92.211851 186.820692 
z
" clip-path="url(#paec4b4e42d)" style="fill: #d62728; opacity: 0.1"/>
   </g>
   <g id="patch_85">
    <path d="M 66.991387 186.821395 
L 67.356901 186.821395 
L 67.356901 186.812956 
L 66.991387 186.812956 
z
" clip-path="url(#paec4b4e42d)" style="fill: #9467bd; opacity: 0.1"/>
   </g>
   <g id="patch_86">
    <path d="M 67.356901 186.821395 
L 67.722415 186.821395 
L 67.722415 186.1596 
L 67.356901 186.1596 
z
" clip-path="url(#paec4b4e42d)" style="fill: #9467bd; opacity: 0.1"/>
   </g>
   <g id="patch_87">
    <path d="M 67.722415 186.821395 
L 68.087929 186.821395 
L 68.087929 178.252877 
L 67.722415 178.252877 
z
" clip-path="url(#paec4b4e42d)" style="fill: #9467bd; opacity: 0.1"/>
   </g>
   <g id="patch_88">
    <path d="M 68.087929 186.821395 
L 68.453443 186.821395 
L 68.453443 145.481733 
L 68.087929 145.481733 
z
" clip-path="url(#paec4b4e42d)" style="fill: #9467bd; opacity: 0.1"/>
   </g>
   <g id="patch_89">
    <path d="M 68.453443 186.821395 
L 68.818957 186.821395 
L 68.818957 96.341897 
L 68.453443 96.341897 
z
" clip-path="url(#paec4b4e42d)" style="fill: #9467bd; opacity: 0.1"/>
   </g>
   <g id="patch_90">
    <path d="M 68.818957 186.821395 
L 69.184471 186.821395 
L 69.184471 83.517779 
L 68.818957 83.517779 
z
" clip-path="url(#paec4b4e42d)" style="fill: #9467bd; opacity: 0.1"/>
   </g>
   <g id="patch_91">
    <path d="M 69.184471 186.821395 
L 69.549985 186.821395 
L 69.549985 118.519051 
L 69.184471 118.519051 
z
" clip-path="url(#paec4b4e42d)" style="fill: #9467bd; opacity: 0.1"/>
   </g>
   <g id="patch_92">
    <path d="M 69.549985 186.821395 
L 69.915499 186.821395 
L 69.915499 158.0277 
L 69.549985 158.0277 
z
" clip-path="url(#paec4b4e42d)" style="fill: #9467bd; opacity: 0.1"/>
   </g>
   <g id="patch_93">
    <path d="M 69.915499 186.821395 
L 70.281013 186.821395 
L 70.281013 178.601708 
L 69.915499 178.601708 
z
" clip-path="url(#paec4b4e42d)" style="fill: #9467bd; opacity: 0.1"/>
   </g>
   <g id="patch_94">
    <path d="M 70.281013 186.821395 
L 70.646527 186.821395 
L 70.646527 185.146865 
L 70.281013 185.146865 
z
" clip-path="url(#paec4b4e42d)" style="fill: #9467bd; opacity: 0.1"/>
   </g>
   <g id="patch_95">
    <path d="M 70.646527 186.821395 
L 71.012041 186.821395 
L 71.012041 186.5552 
L 70.646527 186.5552 
z
" clip-path="url(#paec4b4e42d)" style="fill: #9467bd; opacity: 0.1"/>
   </g>
   <g id="patch_96">
    <path d="M 71.012041 186.821395 
L 71.377555 186.821395 
L 71.377555 186.796077 
L 71.012041 186.796077 
z
" clip-path="url(#paec4b4e42d)" style="fill: #9467bd; opacity: 0.1"/>
   </g>
   <g id="patch_97">
    <path d="M 71.377555 186.821395 
L 71.743069 186.821395 
L 71.743069 186.82034 
L 71.377555 186.82034 
z
" clip-path="url(#paec4b4e42d)" style="fill: #9467bd; opacity: 0.1"/>
   </g>
   <g id="patch_98">
    <path d="M 57.12251 186.821395 
L 57.488024 186.821395 
L 57.488024 186.819637 
L 57.12251 186.819637 
z
" clip-path="url(#paec4b4e42d)" style="fill: #8c564b; opacity: 0.1"/>
   </g>
   <g id="patch_99">
    <path d="M 57.488024 186.821395 
L 57.853538 186.821395 
L 57.853538 186.503509 
L 57.488024 186.503509 
z
" clip-path="url(#paec4b4e42d)" style="fill: #8c564b; opacity: 0.1"/>
   </g>
   <g id="patch_100">
    <path d="M 57.853538 186.821395 
L 58.219052 186.821395 
L 58.219052 178.485666 
L 57.853538 178.485666 
z
" clip-path="url(#paec4b4e42d)" style="fill: #8c564b; opacity: 0.1"/>
   </g>
   <g id="patch_101">
    <path d="M 58.219052 186.821395 
L 58.584566 186.821395 
L 58.584566 133.561341 
L 58.219052 133.561341 
z
" clip-path="url(#paec4b4e42d)" style="fill: #8c564b; opacity: 0.1"/>
   </g>
   <g id="patch_102">
    <path d="M 58.584566 186.821395 
L 58.95008 186.821395 
L 58.95008 71.166974 
L 58.584566 71.166974 
z
" clip-path="url(#paec4b4e42d)" style="fill: #8c564b; opacity: 0.1"/>
   </g>
   <g id="patch_103">
    <path d="M 58.95008 186.821395 
L 59.315594 186.821395 
L 59.315594 78.705877 
L 58.95008 78.705877 
z
" clip-path="url(#paec4b4e42d)" style="fill: #8c564b; opacity: 0.1"/>
   </g>
   <g id="patch_104">
    <path d="M 59.315594 186.821395 
L 59.681108 186.821395 
L 59.681108 135.999643 
L 59.315594 135.999643 
z
" clip-path="url(#paec4b4e42d)" style="fill: #8c564b; opacity: 0.1"/>
   </g>
   <g id="patch_105">
    <path d="M 59.681108 186.821395 
L 60.046622 186.821395 
L 60.046622 173.734599 
L 59.681108 173.734599 
z
" clip-path="url(#paec4b4e42d)" style="fill: #8c564b; opacity: 0.1"/>
   </g>
   <g id="patch_106">
    <path d="M 60.046622 186.821395 
L 60.412136 186.821395 
L 60.412136 184.9299 
L 60.046622 184.9299 
z
" clip-path="url(#paec4b4e42d)" style="fill: #8c564b; opacity: 0.1"/>
   </g>
   <g id="patch_107">
    <path d="M 60.412136 186.821395 
L 60.77765 186.821395 
L 60.77765 186.667726 
L 60.412136 186.667726 
z
" clip-path="url(#paec4b4e42d)" style="fill: #8c564b; opacity: 0.1"/>
   </g>
   <g id="patch_108">
    <path d="M 60.77765 186.821395 
L 61.143164 186.821395 
L 61.143164 186.81612 
L 60.77765 186.81612 
z
" clip-path="url(#paec4b4e42d)" style="fill: #8c564b; opacity: 0.1"/>
   </g>
   <g id="patch_109">
    <path d="M 52.370828 186.821395 
L 52.736342 186.821395 
L 52.736342 186.820692 
L 52.370828 186.820692 
z
" clip-path="url(#paec4b4e42d)" style="fill: #e377c2; opacity: 0.1"/>
   </g>
   <g id="patch_110">
    <path d="M 52.736342 186.821395 
L 53.101856 186.821395 
L 53.101856 186.424037 
L 52.736342 186.424037 
z
" clip-path="url(#paec4b4e42d)" style="fill: #e377c2; opacity: 0.1"/>
   </g>
   <g id="patch_111">
    <path d="M 53.101856 186.821395 
L 53.46737 186.821395 
L 53.46737 170.591953 
L 53.101856 170.591953 
z
" clip-path="url(#paec4b4e42d)" style="fill: #e377c2; opacity: 0.1"/>
   </g>
   <g id="patch_112">
    <path d="M 53.46737 186.821395 
L 53.832884 186.821395 
L 53.832884 94.11212 
L 53.46737 94.11212 
z
" clip-path="url(#paec4b4e42d)" style="fill: #e377c2; opacity: 0.1"/>
   </g>
   <g id="patch_113">
    <path d="M 53.832884 186.821395 
L 54.198398 186.821395 
L 54.198398 43.189094 
L 53.832884 43.189094 
z
" clip-path="url(#paec4b4e42d)" style="fill: #e377c2; opacity: 0.1"/>
   </g>
   <g id="patch_114">
    <path d="M 54.198398 186.821395 
L 54.563912 186.821395 
L 54.563912 107.202784 
L 54.198398 107.202784 
z
" clip-path="url(#paec4b4e42d)" style="fill: #e377c2; opacity: 0.1"/>
   </g>
   <g id="patch_115">
    <path d="M 54.563912 186.821395 
L 54.929426 186.821395 
L 54.929426 169.147398 
L 54.563912 169.147398 
z
" clip-path="url(#paec4b4e42d)" style="fill: #e377c2; opacity: 0.1"/>
   </g>
   <g id="patch_116">
    <path d="M 54.929426 186.821395 
L 55.29494 186.821395 
L 55.29494 185.438729 
L 54.929426 185.438729 
z
" clip-path="url(#paec4b4e42d)" style="fill: #e377c2; opacity: 0.1"/>
   </g>
   <g id="patch_117">
    <path d="M 50.543258 186.821395 
L 50.908772 186.821395 
L 50.908772 185.33183 
L 50.543258 185.33183 
z
" clip-path="url(#paec4b4e42d)" style="fill: #7f7f7f; opacity: 0.1"/>
   </g>
   <g id="patch_118">
    <path d="M 50.908772 186.821395 
L 51.274286 186.821395 
L 51.274286 137.185036 
L 50.908772 137.185036 
z
" clip-path="url(#paec4b4e42d)" style="fill: #7f7f7f; opacity: 0.1"/>
   </g>
   <g id="patch_119">
    <path d="M 51.274286 186.821395 
L 51.6398 186.821395 
L 51.6398 26.179354 
L 51.274286 26.179354 
z
" clip-path="url(#paec4b4e42d)" style="fill: #7f7f7f; opacity: 0.1"/>
   </g>
   <g id="patch_120">
    <path d="M 51.6398 186.821395 
L 52.005314 186.821395 
L 52.005314 69.116184 
L 51.6398 69.116184 
z
" clip-path="url(#paec4b4e42d)" style="fill: #7f7f7f; opacity: 0.1"/>
   </g>
   <g id="patch_121">
    <path d="M 52.005314 186.821395 
L 52.370828 186.821395 
L 52.370828 164.650219 
L 52.005314 164.650219 
z
" clip-path="url(#paec4b4e42d)" style="fill: #7f7f7f; opacity: 0.1"/>
   </g>
   <g id="matplotlib.axis_1">
    <g id="xtick_1">
     <g id="line2d_1">
      <defs>
       <path id="m7d3c5dd7c8" d="M 0 0 
L 0 3.5 
" style="stroke: #000000; stroke-width: 0.8"/>
      </defs>
      <g>
       <use xlink:href="#m7d3c5dd7c8" x="49.26396" y="186.821395" style="stroke: #000000; stroke-width: 0.8"/>
      </g>
     </g>
     <g id="text_1">
      <!-- 0 -->
      <g transform="translate(46.08271 201.419833) scale(0.1 -0.1)">
       <defs>
        <path id="DejaVuSans-30" d="M 2034 4250 
Q 1547 4250 1301 3770 
Q 1056 3291 1056 2328 
Q 1056 1369 1301 889 
Q 1547 409 2034 409 
Q 2525 409 2770 889 
Q 3016 1369 3016 2328 
Q 3016 3291 2770 3770 
Q 2525 4250 2034 4250 
z
M 2034 4750 
Q 2819 4750 3233 4129 
Q 3647 3509 3647 2328 
Q 3647 1150 3233 529 
Q 2819 -91 2034 -91 
Q 1250 -91 836 529 
Q 422 1150 422 2328 
Q 422 3509 836 4129 
Q 1250 4750 2034 4750 
z
" transform="scale(0.015625)"/>
       </defs>
       <use xlink:href="#DejaVuSans-30"/>
      </g>
     </g>
    </g>
    <g id="xtick_2">
     <g id="line2d_2">
      <g>
       <use xlink:href="#m7d3c5dd7c8" x="122.366754" y="186.821395" style="stroke: #000000; stroke-width: 0.8"/>
      </g>
     </g>
     <g id="text_2">
      <!-- 200 -->
      <g transform="translate(112.823004 201.419833) scale(0.1 -0.1)">
       <defs>
        <path id="DejaVuSans-32" d="M 1228 531 
L 3431 531 
L 3431 0 
L 469 0 
L 469 531 
Q 828 903 1448 1529 
Q 2069 2156 2228 2338 
Q 2531 2678 2651 2914 
Q 2772 3150 2772 3378 
Q 2772 3750 2511 3984 
Q 2250 4219 1831 4219 
Q 1534 4219 1204 4116 
Q 875 4013 500 3803 
L 500 4441 
Q 881 4594 1212 4672 
Q 1544 4750 1819 4750 
Q 2544 4750 2975 4387 
Q 3406 4025 3406 3419 
Q 3406 3131 3298 2873 
Q 3191 2616 2906 2266 
Q 2828 2175 2409 1742 
Q 1991 1309 1228 531 
z
" transform="scale(0.015625)"/>
       </defs>
       <use xlink:href="#DejaVuSans-32"/>
       <use xlink:href="#DejaVuSans-30" x="63.623047"/>
       <use xlink:href="#DejaVuSans-30" x="127.246094"/>
      </g>
     </g>
    </g>
    <g id="xtick_3">
     <g id="line2d_3">
      <g>
       <use xlink:href="#m7d3c5dd7c8" x="195.469548" y="186.821395" style="stroke: #000000; stroke-width: 0.8"/>
      </g>
     </g>
     <g id="text_3">
      <!-- 400 -->
      <g transform="translate(185.925798 201.419833) scale(0.1 -0.1)">
       <defs>
        <path id="DejaVuSans-34" d="M 2419 4116 
L 825 1625 
L 2419 1625 
L 2419 4116 
z
M 2253 4666 
L 3047 4666 
L 3047 1625 
L 3713 1625 
L 3713 1100 
L 3047 1100 
L 3047 0 
L 2419 0 
L 2419 1100 
L 313 1100 
L 313 1709 
L 2253 4666 
z
" transform="scale(0.015625)"/>
       </defs>
       <use xlink:href="#DejaVuSans-34"/>
       <use xlink:href="#DejaVuSans-30" x="63.623047"/>
       <use xlink:href="#DejaVuSans-30" x="127.246094"/>
      </g>
     </g>
    </g>
    <g id="xtick_4">
     <g id="line2d_4">
      <g>
       <use xlink:href="#m7d3c5dd7c8" x="268.572342" y="186.821395" style="stroke: #000000; stroke-width: 0.8"/>
      </g>
     </g>
     <g id="text_4">
      <!-- 600 -->
      <g transform="translate(259.028592 201.419833) scale(0.1 -0.1)">
       <defs>
        <path id="DejaVuSans-36" d="M 2113 2584 
Q 1688 2584 1439 2293 
Q 1191 2003 1191 1497 
Q 1191 994 1439 701 
Q 1688 409 2113 409 
Q 2538 409 2786 701 
Q 3034 994 3034 1497 
Q 3034 2003 2786 2293 
Q 2538 2584 2113 2584 
z
M 3366 4563 
L 3366 3988 
Q 3128 4100 2886 4159 
Q 2644 4219 2406 4219 
Q 1781 4219 1451 3797 
Q 1122 3375 1075 2522 
Q 1259 2794 1537 2939 
Q 1816 3084 2150 3084 
Q 2853 3084 3261 2657 
Q 3669 2231 3669 1497 
Q 3669 778 3244 343 
Q 2819 -91 2113 -91 
Q 1303 -91 875 529 
Q 447 1150 447 2328 
Q 447 3434 972 4092 
Q 1497 4750 2381 4750 
Q 2619 4750 2861 4703 
Q 3103 4656 3366 4563 
z
" transform="scale(0.015625)"/>
       </defs>
       <use xlink:href="#DejaVuSans-36"/>
       <use xlink:href="#DejaVuSans-30" x="63.623047"/>
       <use xlink:href="#DejaVuSans-30" x="127.246094"/>
      </g>
     </g>
    </g>
    <g id="xtick_5">
     <g id="line2d_5">
      <g>
       <use xlink:href="#m7d3c5dd7c8" x="341.675136" y="186.821395" style="stroke: #000000; stroke-width: 0.8"/>
      </g>
     </g>
     <g id="text_5">
      <!-- 800 -->
      <g transform="translate(332.131386 201.419833) scale(0.1 -0.1)">
       <defs>
        <path id="DejaVuSans-38" d="M 2034 2216 
Q 1584 2216 1326 1975 
Q 1069 1734 1069 1313 
Q 1069 891 1326 650 
Q 1584 409 2034 409 
Q 2484 409 2743 651 
Q 3003 894 3003 1313 
Q 3003 1734 2745 1975 
Q 2488 2216 2034 2216 
z
M 1403 2484 
Q 997 2584 770 2862 
Q 544 3141 544 3541 
Q 544 4100 942 4425 
Q 1341 4750 2034 4750 
Q 2731 4750 3128 4425 
Q 3525 4100 3525 3541 
Q 3525 3141 3298 2862 
Q 3072 2584 2669 2484 
Q 3125 2378 3379 2068 
Q 3634 1759 3634 1313 
Q 3634 634 3220 271 
Q 2806 -91 2034 -91 
Q 1263 -91 848 271 
Q 434 634 434 1313 
Q 434 1759 690 2068 
Q 947 2378 1403 2484 
z
M 1172 3481 
Q 1172 3119 1398 2916 
Q 1625 2713 2034 2713 
Q 2441 2713 2670 2916 
Q 2900 3119 2900 3481 
Q 2900 3844 2670 4047 
Q 2441 4250 2034 4250 
Q 1625 4250 1398 4047 
Q 1172 3844 1172 3481 
z
" transform="scale(0.015625)"/>
       </defs>
       <use xlink:href="#DejaVuSans-38"/>
       <use xlink:href="#DejaVuSans-30" x="63.623047"/>
       <use xlink:href="#DejaVuSans-30" x="127.246094"/>
      </g>
     </g>
    </g>
    <g id="text_6">
     <!-- Pile Height, $h$ -->
     <g transform="translate(186.791741 215.09952) scale(0.1 -0.1)">
      <defs>
       <path id="DejaVuSans-50" d="M 1259 4147 
L 1259 2394 
L 2053 2394 
Q 2494 2394 2734 2622 
Q 2975 2850 2975 3272 
Q 2975 3691 2734 3919 
Q 2494 4147 2053 4147 
L 1259 4147 
z
M 628 4666 
L 2053 4666 
Q 2838 4666 3239 4311 
Q 3641 3956 3641 3272 
Q 3641 2581 3239 2228 
Q 2838 1875 2053 1875 
L 1259 1875 
L 1259 0 
L 628 0 
L 628 4666 
z
" transform="scale(0.015625)"/>
       <path id="DejaVuSans-69" d="M 603 3500 
L 1178 3500 
L 1178 0 
L 603 0 
L 603 3500 
z
M 603 4863 
L 1178 4863 
L 1178 4134 
L 603 4134 
L 603 4863 
z
" transform="scale(0.015625)"/>
       <path id="DejaVuSans-6c" d="M 603 4863 
L 1178 4863 
L 1178 0 
L 603 0 
L 603 4863 
z
" transform="scale(0.015625)"/>
       <path id="DejaVuSans-65" d="M 3597 1894 
L 3597 1613 
L 953 1613 
Q 991 1019 1311 708 
Q 1631 397 2203 397 
Q 2534 397 2845 478 
Q 3156 559 3463 722 
L 3463 178 
Q 3153 47 2828 -22 
Q 2503 -91 2169 -91 
Q 1331 -91 842 396 
Q 353 884 353 1716 
Q 353 2575 817 3079 
Q 1281 3584 2069 3584 
Q 2775 3584 3186 3129 
Q 3597 2675 3597 1894 
z
M 3022 2063 
Q 3016 2534 2758 2815 
Q 2500 3097 2075 3097 
Q 1594 3097 1305 2825 
Q 1016 2553 972 2059 
L 3022 2063 
z
" transform="scale(0.015625)"/>
       <path id="DejaVuSans-20" transform="scale(0.015625)"/>
       <path id="DejaVuSans-48" d="M 628 4666 
L 1259 4666 
L 1259 2753 
L 3553 2753 
L 3553 4666 
L 4184 4666 
L 4184 0 
L 3553 0 
L 3553 2222 
L 1259 2222 
L 1259 0 
L 628 0 
L 628 4666 
z
" transform="scale(0.015625)"/>
       <path id="DejaVuSans-67" d="M 2906 1791 
Q 2906 2416 2648 2759 
Q 2391 3103 1925 3103 
Q 1463 3103 1205 2759 
Q 947 2416 947 1791 
Q 947 1169 1205 825 
Q 1463 481 1925 481 
Q 2391 481 2648 825 
Q 2906 1169 2906 1791 
z
M 3481 434 
Q 3481 -459 3084 -895 
Q 2688 -1331 1869 -1331 
Q 1566 -1331 1297 -1286 
Q 1028 -1241 775 -1147 
L 775 -588 
Q 1028 -725 1275 -790 
Q 1522 -856 1778 -856 
Q 2344 -856 2625 -561 
Q 2906 -266 2906 331 
L 2906 616 
Q 2728 306 2450 153 
Q 2172 0 1784 0 
Q 1141 0 747 490 
Q 353 981 353 1791 
Q 353 2603 747 3093 
Q 1141 3584 1784 3584 
Q 2172 3584 2450 3431 
Q 2728 3278 2906 2969 
L 2906 3500 
L 3481 3500 
L 3481 434 
z
" transform="scale(0.015625)"/>
       <path id="DejaVuSans-68" d="M 3513 2113 
L 3513 0 
L 2938 0 
L 2938 2094 
Q 2938 2591 2744 2837 
Q 2550 3084 2163 3084 
Q 1697 3084 1428 2787 
Q 1159 2491 1159 1978 
L 1159 0 
L 581 0 
L 581 4863 
L 1159 4863 
L 1159 2956 
Q 1366 3272 1645 3428 
Q 1925 3584 2291 3584 
Q 2894 3584 3203 3211 
Q 3513 2838 3513 2113 
z
" transform="scale(0.015625)"/>
       <path id="DejaVuSans-74" d="M 1172 4494 
L 1172 3500 
L 2356 3500 
L 2356 3053 
L 1172 3053 
L 1172 1153 
Q 1172 725 1289 603 
Q 1406 481 1766 481 
L 2356 481 
L 2356 0 
L 1766 0 
Q 1100 0 847 248 
Q 594 497 594 1153 
L 594 3053 
L 172 3053 
L 172 3500 
L 594 3500 
L 594 4494 
L 1172 4494 
z
" transform="scale(0.015625)"/>
       <path id="DejaVuSans-2c" d="M 750 794 
L 1409 794 
L 1409 256 
L 897 -744 
L 494 -744 
L 750 256 
L 750 794 
z
" transform="scale(0.015625)"/>
       <path id="DejaVuSans-Oblique-68" d="M 3566 2113 
L 3156 0 
L 2578 0 
L 2988 2091 
Q 3016 2238 3031 2350 
Q 3047 2463 3047 2528 
Q 3047 2791 2881 2937 
Q 2716 3084 2419 3084 
Q 1956 3084 1617 2771 
Q 1278 2459 1178 1941 
L 800 0 
L 225 0 
L 1172 4863 
L 1747 4863 
L 1375 2950 
Q 1594 3244 1934 3414 
Q 2275 3584 2650 3584 
Q 3113 3584 3367 3334 
Q 3622 3084 3622 2631 
Q 3622 2519 3608 2391 
Q 3594 2263 3566 2113 
z
" transform="scale(0.015625)"/>
      </defs>
      <use xlink:href="#DejaVuSans-50" transform="translate(0 0.015625)"/>
      <use xlink:href="#DejaVuSans-69" transform="translate(60.302734 0.015625)"/>
      <use xlink:href="#DejaVuSans-6c" transform="translate(88.085938 0.015625)"/>
      <use xlink:href="#DejaVuSans-65" transform="translate(115.869141 0.015625)"/>
      <use xlink:href="#DejaVuSans-20" transform="translate(177.392578 0.015625)"/>
      <use xlink:href="#DejaVuSans-48" transform="translate(209.179688 0.015625)"/>
      <use xlink:href="#DejaVuSans-65" transform="translate(284.375 0.015625)"/>
      <use xlink:href="#DejaVuSans-69" transform="translate(345.898438 0.015625)"/>
      <use xlink:href="#DejaVuSans-67" transform="translate(373.681641 0.015625)"/>
      <use xlink:href="#DejaVuSans-68" transform="translate(437.158203 0.015625)"/>
      <use xlink:href="#DejaVuSans-74" transform="translate(500.537109 0.015625)"/>
      <use xlink:href="#DejaVuSans-2c" transform="translate(539.746094 0.015625)"/>
      <use xlink:href="#DejaVuSans-20" transform="translate(571.533203 0.015625)"/>
      <use xlink:href="#DejaVuSans-Oblique-68" transform="translate(603.320312 0.015625)"/>
     </g>
    </g>
   </g>
   <g id="matplotlib.axis_2">
    <g id="ytick_1">
     <g id="line2d_6">
      <defs>
       <path id="m16f22535a2" d="M 0 0 
L -3.5 0 
" style="stroke: #000000; stroke-width: 0.8"/>
      </defs>
      <g>
       <use xlink:href="#m16f22535a2" x="43.78125" y="186.821395" style="stroke: #000000; stroke-width: 0.8"/>
      </g>
     </g>
     <g id="text_7">
      <!-- 0.0 -->
      <g transform="translate(20.878125 190.620614) scale(0.1 -0.1)">
       <defs>
        <path id="DejaVuSans-2e" d="M 684 794 
L 1344 794 
L 1344 0 
L 684 0 
L 684 794 
z
" transform="scale(0.015625)"/>
       </defs>
       <use xlink:href="#DejaVuSans-30"/>
       <use xlink:href="#DejaVuSans-2e" x="63.623047"/>
       <use xlink:href="#DejaVuSans-30" x="95.410156"/>
      </g>
     </g>
    </g>
    <g id="ytick_2">
     <g id="line2d_7">
      <g>
       <use xlink:href="#m16f22535a2" x="43.78125" y="151.65696" style="stroke: #000000; stroke-width: 0.8"/>
      </g>
     </g>
     <g id="text_8">
      <!-- 0.1 -->
      <g transform="translate(20.878125 155.456179) scale(0.1 -0.1)">
       <defs>
        <path id="DejaVuSans-31" d="M 794 531 
L 1825 531 
L 1825 4091 
L 703 3866 
L 703 4441 
L 1819 4666 
L 2450 4666 
L 2450 531 
L 3481 531 
L 3481 0 
L 794 0 
L 794 531 
z
" transform="scale(0.015625)"/>
       </defs>
       <use xlink:href="#DejaVuSans-30"/>
       <use xlink:href="#DejaVuSans-2e" x="63.623047"/>
       <use xlink:href="#DejaVuSans-31" x="95.410156"/>
      </g>
     </g>
    </g>
    <g id="ytick_3">
     <g id="line2d_8">
      <g>
       <use xlink:href="#m16f22535a2" x="43.78125" y="116.492525" style="stroke: #000000; stroke-width: 0.8"/>
      </g>
     </g>
     <g id="text_9">
      <!-- 0.2 -->
      <g transform="translate(20.878125 120.291743) scale(0.1 -0.1)">
       <use xlink:href="#DejaVuSans-30"/>
       <use xlink:href="#DejaVuSans-2e" x="63.623047"/>
       <use xlink:href="#DejaVuSans-32" x="95.410156"/>
      </g>
     </g>
    </g>
    <g id="ytick_4">
     <g id="line2d_9">
      <g>
       <use xlink:href="#m16f22535a2" x="43.78125" y="81.328089" style="stroke: #000000; stroke-width: 0.8"/>
      </g>
     </g>
     <g id="text_10">
      <!-- 0.3 -->
      <g transform="translate(20.878125 85.127308) scale(0.1 -0.1)">
       <defs>
        <path id="DejaVuSans-33" d="M 2597 2516 
Q 3050 2419 3304 2112 
Q 3559 1806 3559 1356 
Q 3559 666 3084 287 
Q 2609 -91 1734 -91 
Q 1441 -91 1130 -33 
Q 819 25 488 141 
L 488 750 
Q 750 597 1062 519 
Q 1375 441 1716 441 
Q 2309 441 2620 675 
Q 2931 909 2931 1356 
Q 2931 1769 2642 2001 
Q 2353 2234 1838 2234 
L 1294 2234 
L 1294 2753 
L 1863 2753 
Q 2328 2753 2575 2939 
Q 2822 3125 2822 3475 
Q 2822 3834 2567 4026 
Q 2313 4219 1838 4219 
Q 1578 4219 1281 4162 
Q 984 4106 628 3988 
L 628 4550 
Q 988 4650 1302 4700 
Q 1616 4750 1894 4750 
Q 2613 4750 3031 4423 
Q 3450 4097 3450 3541 
Q 3450 3153 3228 2886 
Q 3006 2619 2597 2516 
z
" transform="scale(0.015625)"/>
       </defs>
       <use xlink:href="#DejaVuSans-30"/>
       <use xlink:href="#DejaVuSans-2e" x="63.623047"/>
       <use xlink:href="#DejaVuSans-33" x="95.410156"/>
      </g>
     </g>
    </g>
    <g id="ytick_5">
     <g id="line2d_10">
      <g>
       <use xlink:href="#m16f22535a2" x="43.78125" y="46.163654" style="stroke: #000000; stroke-width: 0.8"/>
      </g>
     </g>
     <g id="text_11">
      <!-- 0.4 -->
      <g transform="translate(20.878125 49.962873) scale(0.1 -0.1)">
       <use xlink:href="#DejaVuSans-30"/>
       <use xlink:href="#DejaVuSans-2e" x="63.623047"/>
       <use xlink:href="#DejaVuSans-34" x="95.410156"/>
      </g>
     </g>
    </g>
    <g id="ytick_6">
     <g id="line2d_11">
      <g>
       <use xlink:href="#m16f22535a2" x="43.78125" y="10.999219" style="stroke: #000000; stroke-width: 0.8"/>
      </g>
     </g>
     <g id="text_12">
      <!-- 0.5 -->
      <g transform="translate(20.878125 14.798438) scale(0.1 -0.1)">
       <defs>
        <path id="DejaVuSans-35" d="M 691 4666 
L 3169 4666 
L 3169 4134 
L 1269 4134 
L 1269 2991 
Q 1406 3038 1543 3061 
Q 1681 3084 1819 3084 
Q 2600 3084 3056 2656 
Q 3513 2228 3513 1497 
Q 3513 744 3044 326 
Q 2575 -91 1722 -91 
Q 1428 -91 1123 -41 
Q 819 9 494 109 
L 494 744 
Q 775 591 1075 516 
Q 1375 441 1709 441 
Q 2250 441 2565 725 
Q 2881 1009 2881 1497 
Q 2881 1984 2565 2268 
Q 2250 2553 1709 2553 
Q 1456 2553 1204 2497 
Q 953 2441 691 2322 
L 691 4666 
z
" transform="scale(0.015625)"/>
       </defs>
       <use xlink:href="#DejaVuSans-30"/>
       <use xlink:href="#DejaVuSans-2e" x="63.623047"/>
       <use xlink:href="#DejaVuSans-35" x="95.410156"/>
      </g>
     </g>
    </g>
    <g id="text_13">
     <!-- $P \, (h;L)$ -->
     <g transform="translate(14.798438 115.260307) rotate(-90) scale(0.1 -0.1)">
      <defs>
       <path id="DejaVuSans-Oblique-50" d="M 1081 4666 
L 2541 4666 
Q 3178 4666 3512 4369 
Q 3847 4072 3847 3500 
Q 3847 2731 3353 2303 
Q 2859 1875 1966 1875 
L 1172 1875 
L 806 0 
L 172 0 
L 1081 4666 
z
M 1613 4147 
L 1275 2394 
L 2069 2394 
Q 2606 2394 2893 2669 
Q 3181 2944 3181 3456 
Q 3181 3784 2986 3965 
Q 2791 4147 2438 4147 
L 1613 4147 
z
" transform="scale(0.015625)"/>
       <path id="DejaVuSans-28" d="M 1984 4856 
Q 1566 4138 1362 3434 
Q 1159 2731 1159 2009 
Q 1159 1288 1364 580 
Q 1569 -128 1984 -844 
L 1484 -844 
Q 1016 -109 783 600 
Q 550 1309 550 2009 
Q 550 2706 781 3412 
Q 1013 4119 1484 4856 
L 1984 4856 
z
" transform="scale(0.015625)"/>
       <path id="DejaVuSans-3b" d="M 750 3309 
L 1409 3309 
L 1409 2516 
L 750 2516 
L 750 3309 
z
M 750 794 
L 1409 794 
L 1409 256 
L 897 -744 
L 494 -744 
L 750 256 
L 750 794 
z
" transform="scale(0.015625)"/>
       <path id="DejaVuSans-Oblique-4c" d="M 1075 4666 
L 1709 4666 
L 909 525 
L 3181 525 
L 3078 0 
L 172 0 
L 1075 4666 
z
" transform="scale(0.015625)"/>
       <path id="DejaVuSans-29" d="M 513 4856 
L 1013 4856 
Q 1481 4119 1714 3412 
Q 1947 2706 1947 2009 
Q 1947 1309 1714 600 
Q 1481 -109 1013 -844 
L 513 -844 
Q 928 -128 1133 580 
Q 1338 1288 1338 2009 
Q 1338 2731 1133 3434 
Q 928 4138 513 4856 
z
" transform="scale(0.015625)"/>
      </defs>
      <use xlink:href="#DejaVuSans-Oblique-50" transform="translate(0 0.015625)"/>
      <use xlink:href="#DejaVuSans-28" transform="translate(76.538411 0.015625)"/>
      <use xlink:href="#DejaVuSans-Oblique-68" transform="translate(115.552083 0.015625)"/>
      <use xlink:href="#DejaVuSans-3b" transform="translate(178.930989 0.015625)"/>
      <use xlink:href="#DejaVuSans-Oblique-4c" transform="translate(232.104817 0.015625)"/>
      <use xlink:href="#DejaVuSans-29" transform="translate(287.817708 0.015625)"/>
     </g>
    </g>
   </g>
   <g id="line2d_12">
    <path d="M 368.72317 186.81612 
L 369.088684 186.761967 
L 369.454198 186.464124 
L 369.819712 185.198556 
L 370.185226 181.553059 
L 370.55074 173.581985 
L 370.916254 161.250169 
L 371.281768 146.810246 
L 371.647282 135.322376 
L 372.012795 131.550639 
L 372.378309 136.071379 
L 372.743823 146.557765 
L 373.109337 158.521058 
L 373.474851 168.658261 
L 373.840365 176.251669 
L 374.205879 181.217239 
L 374.571393 184.021251 
L 374.936907 185.531915 
L 375.302421 186.235204 
L 375.667935 186.584035 
L 376.033449 186.71977 
L 376.398963 186.771813 
L 376.764477 186.804516 
L 377.129991 186.816472 
L 377.495505 186.818933 
" clip-path="url(#paec4b4e42d)" style="fill: none; stroke: #1f77b4; stroke-width: 1.5; stroke-linecap: square"/>
   </g>
   <g id="line2d_13">
    <path d="M 207.165995 186.821043 
L 207.531509 186.806626 
L 207.897023 186.596694 
L 208.262537 185.311083 
L 208.628051 180.489687 
L 208.993565 168.499669 
L 209.359079 150.141021 
L 209.724593 131.778153 
L 210.090107 122.271096 
L 210.455621 126.162744 
L 210.821135 140.466582 
L 211.186648 156.577519 
L 211.552162 169.883741 
L 211.917676 178.369271 
L 212.28319 182.949791 
L 212.648704 185.238995 
L 213.014218 186.234149 
L 213.379732 186.619903 
L 213.745246 186.76267 
L 214.11076 186.807681 
L 214.476274 186.817527 
L 214.841788 186.820692 
" clip-path="url(#paec4b4e42d)" style="fill: none; stroke: #ff7f0e; stroke-width: 1.5; stroke-linecap: square"/>
   </g>
   <g id="line2d_14">
    <path d="M 126.752921 186.82034 
L 127.118435 186.776736 
L 127.483949 186.318544 
L 127.849463 183.19137 
L 128.214977 171.728468 
L 128.580491 148.212955 
L 128.946005 121.824156 
L 129.311519 110.351408 
L 129.677033 120.43059 
L 130.042547 142.140057 
L 130.408061 162.76224 
L 130.773575 175.862047 
L 131.139089 182.61819 
L 131.504603 185.38106 
L 131.870117 186.394499 
L 132.235631 186.708869 
L 132.601145 186.801 
L 132.966659 186.818933 
L 133.332173 186.820692 
" clip-path="url(#paec4b4e42d)" style="fill: none; stroke: #2ca02c; stroke-width: 1.5; stroke-linecap: square"/>
   </g>
   <g id="line2d_15">
    <path d="M 86.911899 186.816824 
L 87.277412 186.599859 
L 87.642926 184.041295 
L 88.00844 171.139463 
L 88.373954 139.745359 
L 88.739468 105.81836 
L 89.104982 98.691584 
L 89.470496 122.412106 
L 89.83601 153.07057 
L 90.201524 173.500755 
L 90.567038 182.800342 
L 90.932552 185.822725 
L 91.298066 186.611463 
L 91.66358 186.789395 
L 92.029094 186.817175 
L 92.394608 186.820692 
" clip-path="url(#paec4b4e42d)" style="fill: none; stroke: #d62728; stroke-width: 1.5; stroke-linecap: square"/>
   </g>
   <g id="line2d_16">
    <path d="M 67.174144 186.812956 
L 67.539658 186.1596 
L 67.905172 178.252877 
L 68.270686 145.481733 
L 68.6362 96.341897 
L 69.001714 83.517779 
L 69.367228 118.519051 
L 69.732742 158.0277 
L 70.098256 178.601708 
L 70.46377 185.146865 
L 70.829284 186.5552 
L 71.194798 186.796077 
L 71.560312 186.82034 
" clip-path="url(#paec4b4e42d)" style="fill: none; stroke: #9467bd; stroke-width: 1.5; stroke-linecap: square"/>
   </g>
   <g id="line2d_17">
    <path d="M 57.305267 186.819637 
L 57.670781 186.503509 
L 58.036295 178.485666 
L 58.401809 133.561341 
L 58.767323 71.166974 
L 59.132837 78.705877 
L 59.498351 135.999643 
L 59.863865 173.734599 
L 60.229379 184.9299 
L 60.594893 186.667726 
L 60.960407 186.81612 
" clip-path="url(#paec4b4e42d)" style="fill: none; stroke: #8c564b; stroke-width: 1.5; stroke-linecap: square"/>
   </g>
   <g id="line2d_18">
    <path d="M 52.553585 186.820692 
L 52.919099 186.424037 
L 53.284613 170.591953 
L 53.650127 94.11212 
L 54.015641 43.189094 
L 54.381155 107.202784 
L 54.746669 169.147398 
L 55.112183 185.438729 
" clip-path="url(#paec4b4e42d)" style="fill: none; stroke: #e377c2; stroke-width: 1.5; stroke-linecap: square"/>
   </g>
   <g id="line2d_19">
    <path d="M 50.726015 185.33183 
L 51.091529 137.185036 
L 51.457043 26.179354 
L 51.822557 69.116184 
L 52.188071 164.650219 
" clip-path="url(#paec4b4e42d)" style="fill: none; stroke: #7f7f7f; stroke-width: 1.5; stroke-linecap: square"/>
   </g>
   <g id="patch_122">
    <path d="M 43.78125 186.821395 
L 43.78125 10.999219 
" style="fill: none; stroke: #000000; stroke-width: 0.8; stroke-linejoin: miter; stroke-linecap: square"/>
   </g>
   <g id="patch_123">
    <path d="M 396.502231 186.821395 
L 396.502231 10.999219 
" style="fill: none; stroke: #000000; stroke-width: 0.8; stroke-linejoin: miter; stroke-linecap: square"/>
   </g>
   <g id="patch_124">
    <path d="M 43.78125 186.821395 
L 396.502231 186.821395 
" style="fill: none; stroke: #000000; stroke-width: 0.8; stroke-linejoin: miter; stroke-linecap: square"/>
   </g>
   <g id="patch_125">
    <path d="M 43.78125 10.999219 
L 396.502231 10.999219 
" style="fill: none; stroke: #000000; stroke-width: 0.8; stroke-linejoin: miter; stroke-linecap: square"/>
   </g>
   <g id="legend_1">
    <g id="patch_126">
     <path d="M 416.138281 146.102344 
L 467.225781 146.102344 
Q 469.225781 146.102344 469.225781 144.102344 
L 469.225781 12.999219 
Q 469.225781 10.999219 467.225781 10.999219 
L 416.138281 10.999219 
Q 414.138281 10.999219 414.138281 12.999219 
L 414.138281 144.102344 
Q 414.138281 146.102344 416.138281 146.102344 
z
" style="fill: #ffffff; opacity: 0.8; stroke: #cccccc; stroke-linejoin: miter"/>
    </g>
    <g id="text_14">
     <!-- Size, $L$ -->
     <g transform="translate(425.432031 22.597656) scale(0.1 -0.1)">
      <defs>
       <path id="DejaVuSans-53" d="M 3425 4513 
L 3425 3897 
Q 3066 4069 2747 4153 
Q 2428 4238 2131 4238 
Q 1616 4238 1336 4038 
Q 1056 3838 1056 3469 
Q 1056 3159 1242 3001 
Q 1428 2844 1947 2747 
L 2328 2669 
Q 3034 2534 3370 2195 
Q 3706 1856 3706 1288 
Q 3706 609 3251 259 
Q 2797 -91 1919 -91 
Q 1588 -91 1214 -16 
Q 841 59 441 206 
L 441 856 
Q 825 641 1194 531 
Q 1563 422 1919 422 
Q 2459 422 2753 634 
Q 3047 847 3047 1241 
Q 3047 1584 2836 1778 
Q 2625 1972 2144 2069 
L 1759 2144 
Q 1053 2284 737 2584 
Q 422 2884 422 3419 
Q 422 4038 858 4394 
Q 1294 4750 2059 4750 
Q 2388 4750 2728 4690 
Q 3069 4631 3425 4513 
z
" transform="scale(0.015625)"/>
       <path id="DejaVuSans-7a" d="M 353 3500 
L 3084 3500 
L 3084 2975 
L 922 459 
L 3084 459 
L 3084 0 
L 275 0 
L 275 525 
L 2438 3041 
L 353 3041 
L 353 3500 
z
" transform="scale(0.015625)"/>
      </defs>
      <use xlink:href="#DejaVuSans-53" transform="translate(0 0.015625)"/>
      <use xlink:href="#DejaVuSans-69" transform="translate(63.476562 0.015625)"/>
      <use xlink:href="#DejaVuSans-7a" transform="translate(91.259766 0.015625)"/>
      <use xlink:href="#DejaVuSans-65" transform="translate(143.75 0.015625)"/>
      <use xlink:href="#DejaVuSans-2c" transform="translate(205.273438 0.015625)"/>
      <use xlink:href="#DejaVuSans-20" transform="translate(237.060547 0.015625)"/>
      <use xlink:href="#DejaVuSans-Oblique-4c" transform="translate(268.847656 0.015625)"/>
     </g>
    </g>
    <g id="line2d_20">
     <path d="M 418.138281 33.775781 
L 428.138281 33.775781 
L 438.138281 33.775781 
" style="fill: none; stroke: #1f77b4; stroke-width: 1.5; stroke-linecap: square"/>
    </g>
    <g id="text_15">
     <!-- 512 -->
     <g transform="translate(446.138281 37.275781) scale(0.1 -0.1)">
      <use xlink:href="#DejaVuSans-35"/>
      <use xlink:href="#DejaVuSans-31" x="63.623047"/>
      <use xlink:href="#DejaVuSans-32" x="127.246094"/>
     </g>
    </g>
    <g id="line2d_21">
     <path d="M 418.138281 48.453906 
L 428.138281 48.453906 
L 438.138281 48.453906 
" style="fill: none; stroke: #ff7f0e; stroke-width: 1.5; stroke-linecap: square"/>
    </g>
    <g id="text_16">
     <!-- 256 -->
     <g transform="translate(446.138281 51.953906) scale(0.1 -0.1)">
      <use xlink:href="#DejaVuSans-32"/>
      <use xlink:href="#DejaVuSans-35" x="63.623047"/>
      <use xlink:href="#DejaVuSans-36" x="127.246094"/>
     </g>
    </g>
    <g id="line2d_22">
     <path d="M 418.138281 63.132031 
L 428.138281 63.132031 
L 438.138281 63.132031 
" style="fill: none; stroke: #2ca02c; stroke-width: 1.5; stroke-linecap: square"/>
    </g>
    <g id="text_17">
     <!-- 128 -->
     <g transform="translate(446.138281 66.632031) scale(0.1 -0.1)">
      <use xlink:href="#DejaVuSans-31"/>
      <use xlink:href="#DejaVuSans-32" x="63.623047"/>
      <use xlink:href="#DejaVuSans-38" x="127.246094"/>
     </g>
    </g>
    <g id="line2d_23">
     <path d="M 418.138281 77.810156 
L 428.138281 77.810156 
L 438.138281 77.810156 
" style="fill: none; stroke: #d62728; stroke-width: 1.5; stroke-linecap: square"/>
    </g>
    <g id="text_18">
     <!-- 64 -->
     <g transform="translate(446.138281 81.310156) scale(0.1 -0.1)">
      <use xlink:href="#DejaVuSans-36"/>
      <use xlink:href="#DejaVuSans-34" x="63.623047"/>
     </g>
    </g>
    <g id="line2d_24">
     <path d="M 418.138281 92.488281 
L 428.138281 92.488281 
L 438.138281 92.488281 
" style="fill: none; stroke: #9467bd; stroke-width: 1.5; stroke-linecap: square"/>
    </g>
    <g id="text_19">
     <!-- 32 -->
     <g transform="translate(446.138281 95.988281) scale(0.1 -0.1)">
      <use xlink:href="#DejaVuSans-33"/>
      <use xlink:href="#DejaVuSans-32" x="63.623047"/>
     </g>
    </g>
    <g id="line2d_25">
     <path d="M 418.138281 107.166406 
L 428.138281 107.166406 
L 438.138281 107.166406 
" style="fill: none; stroke: #8c564b; stroke-width: 1.5; stroke-linecap: square"/>
    </g>
    <g id="text_20">
     <!-- 16 -->
     <g transform="translate(446.138281 110.666406) scale(0.1 -0.1)">
      <use xlink:href="#DejaVuSans-31"/>
      <use xlink:href="#DejaVuSans-36" x="63.623047"/>
     </g>
    </g>
    <g id="line2d_26">
     <path d="M 418.138281 121.844531 
L 428.138281 121.844531 
L 438.138281 121.844531 
" style="fill: none; stroke: #e377c2; stroke-width: 1.5; stroke-linecap: square"/>
    </g>
    <g id="text_21">
     <!-- 8 -->
     <g transform="translate(446.138281 125.344531) scale(0.1 -0.1)">
      <use xlink:href="#DejaVuSans-38"/>
     </g>
    </g>
    <g id="line2d_27">
     <path d="M 418.138281 136.522656 
L 428.138281 136.522656 
L 438.138281 136.522656 
" style="fill: none; stroke: #7f7f7f; stroke-width: 1.5; stroke-linecap: square"/>
    </g>
    <g id="text_22">
     <!-- 4 -->
     <g transform="translate(446.138281 140.022656) scale(0.1 -0.1)">
      <use xlink:href="#DejaVuSans-34"/>
     </g>
    </g>
   </g>
  </g>
 </g>
 <defs>
  <clipPath id="paec4b4e42d">
   <rect x="43.78125" y="10.999219" width="352.720981" height="175.822176"/>
  </clipPath>
 </defs>
</svg>
