<?xml version="1.0" encoding="utf-8" standalone="no"?>
<!DOCTYPE svg PUBLIC "-//W3C//DTD SVG 1.1//EN"
  "http://www.w3.org/Graphics/SVG/1.1/DTD/svg11.dtd">
<svg xmlns:xlink="http://www.w3.org/1999/xlink" width="476.39952pt" height="224.39952pt" viewBox="0 0 476.39952 224.39952" xmlns="http://www.w3.org/2000/svg" version="1.1">
 <metadata>
  <rdf:RDF xmlns:dc="http://purl.org/dc/elements/1.1/" xmlns:cc="http://creativecommons.org/ns#" xmlns:rdf="http://www.w3.org/1999/02/22-rdf-syntax-ns#">
   <cc:Work>
    <dc:type rdf:resource="http://purl.org/dc/dcmitype/StillImage"/>
    <dc:date>2023-02-14T17:03:27.585330</dc:date>
    <dc:format>image/svg+xml</dc:format>
    <dc:creator>
     <cc:Agent>
      <dc:title>Matplotlib v3.6.1, https://matplotlib.org/</dc:title>
     </cc:Agent>
    </dc:creator>
   </cc:Work>
  </rdf:RDF>
 </metadata>
 <defs>
  <style type="text/css">*{stroke-linejoin: round; stroke-linecap: butt}</style>
 </defs>
 <g id="figure_1">
  <g id="patch_1">
   <path d="M 0 224.39952 
L 476.39952 224.39952 
L 476.39952 0 
L 0 0 
z
" style="fill: #ffffff"/>
  </g>
  <g id="axes_1">
   <g id="patch_2">
    <path d="M 53.328125 186.821395 
L 227.247958 186.821395 
L 227.247958 22.318125 
L 53.328125 22.318125 
z
" style="fill: #ffffff"/>
   </g>
   <g id="line2d_1">
    <path d="M 61.610022 178.987906 
L 63.283132 177.502568 
L 64.956243 175.959919 
L 66.629353 174.405345 
L 68.302464 172.844519 
L 69.975574 171.27967 
L 71.648685 169.711948 
L 73.321795 168.142043 
L 74.994905 166.570402 
L 76.668016 164.997339 
L 78.341126 163.423084 
L 80.014237 161.84781 
L 81.687347 160.27165 
L 83.360458 158.694713 
L 85.033568 157.117086 
L 86.706679 155.53884 
L 88.379789 153.960036 
L 90.0529 152.380725 
L 91.72601 150.800951 
L 93.399121 149.220751 
L 95.072231 147.640158 
L 96.745341 146.059202 
L 98.418452 144.477906 
L 100.091562 142.896294 
L 101.764673 141.314387 
L 103.437783 139.732202 
L 105.110894 138.149755 
L 106.784004 136.567062 
L 108.457115 134.984136 
L 110.130225 133.400988 
L 111.803336 131.817631 
L 113.476446 130.234074 
L 115.149557 128.650328 
L 116.822667 127.0664 
L 118.495777 125.482299 
L 120.168888 123.898033 
L 121.841998 122.313607 
L 123.515109 120.72903 
L 125.188219 119.144306 
L 126.86133 117.559442 
L 128.53444 115.974443 
L 130.207551 114.389314 
L 131.880661 112.804059 
L 133.553772 111.218684 
L 135.226882 109.633191 
L 136.899993 108.047585 
L 138.573103 106.46187 
L 140.246213 104.87605 
L 141.919324 103.290127 
L 143.592434 101.704104 
L 145.265545 100.117985 
L 146.938655 98.531773 
L 148.611766 96.94547 
L 150.284876 95.359079 
L 151.957987 93.772602 
L 153.631097 92.186042 
L 155.304208 90.599401 
L 156.977318 89.012681 
L 158.650429 87.425883 
L 160.323539 85.839011 
L 161.996649 84.252066 
L 163.66976 82.665049 
L 165.34287 81.077963 
L 167.015981 79.490809 
L 168.689091 77.903588 
L 170.362202 76.316303 
L 172.035312 74.728954 
L 173.708423 73.141544 
L 175.381533 71.554073 
L 177.054644 69.966543 
L 178.727754 68.378954 
L 180.400865 66.791309 
L 182.073975 65.203609 
L 183.747085 63.615854 
L 185.420196 62.028046 
L 187.093306 60.440186 
L 188.766417 58.852274 
L 190.439527 57.264312 
L 192.112638 55.676301 
L 193.785748 54.088242 
L 195.458859 52.500135 
L 197.131969 50.911982 
L 198.80508 49.323783 
L 200.47819 47.735539 
L 202.151301 46.147251 
L 203.824411 44.55892 
L 205.497521 42.970546 
L 207.170632 41.382131 
L 208.843742 39.793674 
L 210.516853 38.205177 
L 212.189963 36.61664 
L 213.863074 35.028065 
L 215.536184 33.43945 
L 217.209295 31.850798 
L 218.882405 30.262109 
L 220.555516 28.673383 
L 222.228626 27.084621 
L 223.901737 25.495824 
L 225.574847 23.906992 
L 227.247958 22.318125 
" clip-path="url(#pa9e237694a)" style="fill: none; stroke-dasharray: 5.55,2.4; stroke-dashoffset: 0; stroke: #d3d3d3; stroke-width: 1.5"/>
   </g>
   <g id="PathCollection_1">
    <defs>
     <path id="m4b01c7a87c" d="M -3.535534 0 
L 3.535534 0 
M 0 3.535534 
L 0 -3.535534 
" style="stroke: #000000; stroke-width: 1.5"/>
    </defs>
    <g clip-path="url(#pa9e237694a)">
     <use xlink:href="#m4b01c7a87c" x="62.686848" y="178.045403" style="stroke: #000000; stroke-width: 1.5"/>
     <use xlink:href="#m4b01c7a87c" x="63.791285" y="177.039079" style="stroke: #000000; stroke-width: 1.5"/>
     <use xlink:href="#m4b01c7a87c" x="66.000159" y="174.992814" style="stroke: #000000; stroke-width: 1.5"/>
     <use xlink:href="#m4b01c7a87c" x="70.417907" y="170.861658" style="stroke: #000000; stroke-width: 1.5"/>
     <use xlink:href="#m4b01c7a87c" x="79.253403" y="162.54551" style="stroke: #000000; stroke-width: 1.5"/>
     <use xlink:href="#m4b01c7a87c" x="96.924394" y="145.873679" style="stroke: #000000; stroke-width: 1.5"/>
     <use xlink:href="#m4b01c7a87c" x="132.266377" y="112.421184" style="stroke: #000000; stroke-width: 1.5"/>
     <use xlink:href="#m4b01c7a87c" x="202.950344" y="45.550229" style="stroke: #000000; stroke-width: 1.5"/>
    </g>
   </g>
   <g id="matplotlib.axis_1">
    <g id="xtick_1">
     <g id="line2d_2">
      <defs>
       <path id="m22d3cec6b3" d="M 0 0 
L 0 3.5 
" style="stroke: #000000; stroke-width: 0.8"/>
      </defs>
      <g>
       <use xlink:href="#m22d3cec6b3" x="61.582411" y="186.821395" style="stroke: #000000; stroke-width: 0.8"/>
      </g>
     </g>
     <g id="text_1">
      <!-- 0 -->
      <g transform="translate(58.401161 201.419833) scale(0.1 -0.1)">
       <defs>
        <path id="DejaVuSans-30" d="M 2034 4250 
Q 1547 4250 1301 3770 
Q 1056 3291 1056 2328 
Q 1056 1369 1301 889 
Q 1547 409 2034 409 
Q 2525 409 2770 889 
Q 3016 1369 3016 2328 
Q 3016 3291 2770 3770 
Q 2525 4250 2034 4250 
z
M 2034 4750 
Q 2819 4750 3233 4129 
Q 3647 3509 3647 2328 
Q 3647 1150 3233 529 
Q 2819 -91 2034 -91 
Q 1250 -91 836 529 
Q 422 1150 422 2328 
Q 422 3509 836 4129 
Q 1250 4750 2034 4750 
z
" transform="scale(0.015625)"/>
       </defs>
       <use xlink:href="#DejaVuSans-30"/>
      </g>
     </g>
    </g>
    <g id="xtick_2">
     <g id="line2d_3">
      <g>
       <use xlink:href="#m22d3cec6b3" x="116.80426" y="186.821395" style="stroke: #000000; stroke-width: 0.8"/>
      </g>
     </g>
     <g id="text_2">
      <!-- 200 -->
      <g transform="translate(107.26051 201.419833) scale(0.1 -0.1)">
       <defs>
        <path id="DejaVuSans-32" d="M 1228 531 
L 3431 531 
L 3431 0 
L 469 0 
L 469 531 
Q 828 903 1448 1529 
Q 2069 2156 2228 2338 
Q 2531 2678 2651 2914 
Q 2772 3150 2772 3378 
Q 2772 3750 2511 3984 
Q 2250 4219 1831 4219 
Q 1534 4219 1204 4116 
Q 875 4013 500 3803 
L 500 4441 
Q 881 4594 1212 4672 
Q 1544 4750 1819 4750 
Q 2544 4750 2975 4387 
Q 3406 4025 3406 3419 
Q 3406 3131 3298 2873 
Q 3191 2616 2906 2266 
Q 2828 2175 2409 1742 
Q 1991 1309 1228 531 
z
" transform="scale(0.015625)"/>
       </defs>
       <use xlink:href="#DejaVuSans-32"/>
       <use xlink:href="#DejaVuSans-30" x="63.623047"/>
       <use xlink:href="#DejaVuSans-30" x="127.246094"/>
      </g>
     </g>
    </g>
    <g id="xtick_3">
     <g id="line2d_4">
      <g>
       <use xlink:href="#m22d3cec6b3" x="172.026109" y="186.821395" style="stroke: #000000; stroke-width: 0.8"/>
      </g>
     </g>
     <g id="text_3">
      <!-- 400 -->
      <g transform="translate(162.482359 201.419833) scale(0.1 -0.1)">
       <defs>
        <path id="DejaVuSans-34" d="M 2419 4116 
L 825 1625 
L 2419 1625 
L 2419 4116 
z
M 2253 4666 
L 3047 4666 
L 3047 1625 
L 3713 1625 
L 3713 1100 
L 3047 1100 
L 3047 0 
L 2419 0 
L 2419 1100 
L 313 1100 
L 313 1709 
L 2253 4666 
z
" transform="scale(0.015625)"/>
       </defs>
       <use xlink:href="#DejaVuSans-34"/>
       <use xlink:href="#DejaVuSans-30" x="63.623047"/>
       <use xlink:href="#DejaVuSans-30" x="127.246094"/>
      </g>
     </g>
    </g>
    <g id="xtick_4">
     <g id="line2d_5">
      <g>
       <use xlink:href="#m22d3cec6b3" x="227.247958" y="186.821395" style="stroke: #000000; stroke-width: 0.8"/>
      </g>
     </g>
     <g id="text_4">
      <!-- 600 -->
      <g transform="translate(217.704208 201.419833) scale(0.1 -0.1)">
       <defs>
        <path id="DejaVuSans-36" d="M 2113 2584 
Q 1688 2584 1439 2293 
Q 1191 2003 1191 1497 
Q 1191 994 1439 701 
Q 1688 409 2113 409 
Q 2538 409 2786 701 
Q 3034 994 3034 1497 
Q 3034 2003 2786 2293 
Q 2538 2584 2113 2584 
z
M 3366 4563 
L 3366 3988 
Q 3128 4100 2886 4159 
Q 2644 4219 2406 4219 
Q 1781 4219 1451 3797 
Q 1122 3375 1075 2522 
Q 1259 2794 1537 2939 
Q 1816 3084 2150 3084 
Q 2853 3084 3261 2657 
Q 3669 2231 3669 1497 
Q 3669 778 3244 343 
Q 2819 -91 2113 -91 
Q 1303 -91 875 529 
Q 447 1150 447 2328 
Q 447 3434 972 4092 
Q 1497 4750 2381 4750 
Q 2619 4750 2861 4703 
Q 3103 4656 3366 4563 
z
" transform="scale(0.015625)"/>
       </defs>
       <use xlink:href="#DejaVuSans-36"/>
       <use xlink:href="#DejaVuSans-30" x="63.623047"/>
       <use xlink:href="#DejaVuSans-30" x="127.246094"/>
      </g>
     </g>
    </g>
    <g id="text_5">
     <!-- System Length, $L$ -->
     <g transform="translate(96.738041 215.09952) scale(0.1 -0.1)">
      <defs>
       <path id="DejaVuSans-53" d="M 3425 4513 
L 3425 3897 
Q 3066 4069 2747 4153 
Q 2428 4238 2131 4238 
Q 1616 4238 1336 4038 
Q 1056 3838 1056 3469 
Q 1056 3159 1242 3001 
Q 1428 2844 1947 2747 
L 2328 2669 
Q 3034 2534 3370 2195 
Q 3706 1856 3706 1288 
Q 3706 609 3251 259 
Q 2797 -91 1919 -91 
Q 1588 -91 1214 -16 
Q 841 59 441 206 
L 441 856 
Q 825 641 1194 531 
Q 1563 422 1919 422 
Q 2459 422 2753 634 
Q 3047 847 3047 1241 
Q 3047 1584 2836 1778 
Q 2625 1972 2144 2069 
L 1759 2144 
Q 1053 2284 737 2584 
Q 422 2884 422 3419 
Q 422 4038 858 4394 
Q 1294 4750 2059 4750 
Q 2388 4750 2728 4690 
Q 3069 4631 3425 4513 
z
" transform="scale(0.015625)"/>
       <path id="DejaVuSans-79" d="M 2059 -325 
Q 1816 -950 1584 -1140 
Q 1353 -1331 966 -1331 
L 506 -1331 
L 506 -850 
L 844 -850 
Q 1081 -850 1212 -737 
Q 1344 -625 1503 -206 
L 1606 56 
L 191 3500 
L 800 3500 
L 1894 763 
L 2988 3500 
L 3597 3500 
L 2059 -325 
z
" transform="scale(0.015625)"/>
       <path id="DejaVuSans-73" d="M 2834 3397 
L 2834 2853 
Q 2591 2978 2328 3040 
Q 2066 3103 1784 3103 
Q 1356 3103 1142 2972 
Q 928 2841 928 2578 
Q 928 2378 1081 2264 
Q 1234 2150 1697 2047 
L 1894 2003 
Q 2506 1872 2764 1633 
Q 3022 1394 3022 966 
Q 3022 478 2636 193 
Q 2250 -91 1575 -91 
Q 1294 -91 989 -36 
Q 684 19 347 128 
L 347 722 
Q 666 556 975 473 
Q 1284 391 1588 391 
Q 1994 391 2212 530 
Q 2431 669 2431 922 
Q 2431 1156 2273 1281 
Q 2116 1406 1581 1522 
L 1381 1569 
Q 847 1681 609 1914 
Q 372 2147 372 2553 
Q 372 3047 722 3315 
Q 1072 3584 1716 3584 
Q 2034 3584 2315 3537 
Q 2597 3491 2834 3397 
z
" transform="scale(0.015625)"/>
       <path id="DejaVuSans-74" d="M 1172 4494 
L 1172 3500 
L 2356 3500 
L 2356 3053 
L 1172 3053 
L 1172 1153 
Q 1172 725 1289 603 
Q 1406 481 1766 481 
L 2356 481 
L 2356 0 
L 1766 0 
Q 1100 0 847 248 
Q 594 497 594 1153 
L 594 3053 
L 172 3053 
L 172 3500 
L 594 3500 
L 594 4494 
L 1172 4494 
z
" transform="scale(0.015625)"/>
       <path id="DejaVuSans-65" d="M 3597 1894 
L 3597 1613 
L 953 1613 
Q 991 1019 1311 708 
Q 1631 397 2203 397 
Q 2534 397 2845 478 
Q 3156 559 3463 722 
L 3463 178 
Q 3153 47 2828 -22 
Q 2503 -91 2169 -91 
Q 1331 -91 842 396 
Q 353 884 353 1716 
Q 353 2575 817 3079 
Q 1281 3584 2069 3584 
Q 2775 3584 3186 3129 
Q 3597 2675 3597 1894 
z
M 3022 2063 
Q 3016 2534 2758 2815 
Q 2500 3097 2075 3097 
Q 1594 3097 1305 2825 
Q 1016 2553 972 2059 
L 3022 2063 
z
" transform="scale(0.015625)"/>
       <path id="DejaVuSans-6d" d="M 3328 2828 
Q 3544 3216 3844 3400 
Q 4144 3584 4550 3584 
Q 5097 3584 5394 3201 
Q 5691 2819 5691 2113 
L 5691 0 
L 5113 0 
L 5113 2094 
Q 5113 2597 4934 2840 
Q 4756 3084 4391 3084 
Q 3944 3084 3684 2787 
Q 3425 2491 3425 1978 
L 3425 0 
L 2847 0 
L 2847 2094 
Q 2847 2600 2669 2842 
Q 2491 3084 2119 3084 
Q 1678 3084 1418 2786 
Q 1159 2488 1159 1978 
L 1159 0 
L 581 0 
L 581 3500 
L 1159 3500 
L 1159 2956 
Q 1356 3278 1631 3431 
Q 1906 3584 2284 3584 
Q 2666 3584 2933 3390 
Q 3200 3197 3328 2828 
z
" transform="scale(0.015625)"/>
       <path id="DejaVuSans-20" transform="scale(0.015625)"/>
       <path id="DejaVuSans-4c" d="M 628 4666 
L 1259 4666 
L 1259 531 
L 3531 531 
L 3531 0 
L 628 0 
L 628 4666 
z
" transform="scale(0.015625)"/>
       <path id="DejaVuSans-6e" d="M 3513 2113 
L 3513 0 
L 2938 0 
L 2938 2094 
Q 2938 2591 2744 2837 
Q 2550 3084 2163 3084 
Q 1697 3084 1428 2787 
Q 1159 2491 1159 1978 
L 1159 0 
L 581 0 
L 581 3500 
L 1159 3500 
L 1159 2956 
Q 1366 3272 1645 3428 
Q 1925 3584 2291 3584 
Q 2894 3584 3203 3211 
Q 3513 2838 3513 2113 
z
" transform="scale(0.015625)"/>
       <path id="DejaVuSans-67" d="M 2906 1791 
Q 2906 2416 2648 2759 
Q 2391 3103 1925 3103 
Q 1463 3103 1205 2759 
Q 947 2416 947 1791 
Q 947 1169 1205 825 
Q 1463 481 1925 481 
Q 2391 481 2648 825 
Q 2906 1169 2906 1791 
z
M 3481 434 
Q 3481 -459 3084 -895 
Q 2688 -1331 1869 -1331 
Q 1566 -1331 1297 -1286 
Q 1028 -1241 775 -1147 
L 775 -588 
Q 1028 -725 1275 -790 
Q 1522 -856 1778 -856 
Q 2344 -856 2625 -561 
Q 2906 -266 2906 331 
L 2906 616 
Q 2728 306 2450 153 
Q 2172 0 1784 0 
Q 1141 0 747 490 
Q 353 981 353 1791 
Q 353 2603 747 3093 
Q 1141 3584 1784 3584 
Q 2172 3584 2450 3431 
Q 2728 3278 2906 2969 
L 2906 3500 
L 3481 3500 
L 3481 434 
z
" transform="scale(0.015625)"/>
       <path id="DejaVuSans-68" d="M 3513 2113 
L 3513 0 
L 2938 0 
L 2938 2094 
Q 2938 2591 2744 2837 
Q 2550 3084 2163 3084 
Q 1697 3084 1428 2787 
Q 1159 2491 1159 1978 
L 1159 0 
L 581 0 
L 581 4863 
L 1159 4863 
L 1159 2956 
Q 1366 3272 1645 3428 
Q 1925 3584 2291 3584 
Q 2894 3584 3203 3211 
Q 3513 2838 3513 2113 
z
" transform="scale(0.015625)"/>
       <path id="DejaVuSans-2c" d="M 750 794 
L 1409 794 
L 1409 256 
L 897 -744 
L 494 -744 
L 750 256 
L 750 794 
z
" transform="scale(0.015625)"/>
       <path id="DejaVuSans-Oblique-4c" d="M 1075 4666 
L 1709 4666 
L 909 525 
L 3181 525 
L 3078 0 
L 172 0 
L 1075 4666 
z
" transform="scale(0.015625)"/>
      </defs>
      <use xlink:href="#DejaVuSans-53" transform="translate(0 0.015625)"/>
      <use xlink:href="#DejaVuSans-79" transform="translate(63.476562 0.015625)"/>
      <use xlink:href="#DejaVuSans-73" transform="translate(122.65625 0.015625)"/>
      <use xlink:href="#DejaVuSans-74" transform="translate(174.755859 0.015625)"/>
      <use xlink:href="#DejaVuSans-65" transform="translate(213.964844 0.015625)"/>
      <use xlink:href="#DejaVuSans-6d" transform="translate(275.488281 0.015625)"/>
      <use xlink:href="#DejaVuSans-20" transform="translate(372.900391 0.015625)"/>
      <use xlink:href="#DejaVuSans-4c" transform="translate(404.6875 0.015625)"/>
      <use xlink:href="#DejaVuSans-65" transform="translate(460.400391 0.015625)"/>
      <use xlink:href="#DejaVuSans-6e" transform="translate(521.923828 0.015625)"/>
      <use xlink:href="#DejaVuSans-67" transform="translate(585.302734 0.015625)"/>
      <use xlink:href="#DejaVuSans-74" transform="translate(648.779297 0.015625)"/>
      <use xlink:href="#DejaVuSans-68" transform="translate(687.988281 0.015625)"/>
      <use xlink:href="#DejaVuSans-2c" transform="translate(751.367188 0.015625)"/>
      <use xlink:href="#DejaVuSans-20" transform="translate(783.154297 0.015625)"/>
      <use xlink:href="#DejaVuSans-Oblique-4c" transform="translate(814.941406 0.015625)"/>
     </g>
    </g>
   </g>
   <g id="matplotlib.axis_2">
    <g id="ytick_1">
     <g id="line2d_6">
      <defs>
       <path id="m16e146f870" d="M 0 0 
L -3.5 0 
" style="stroke: #000000; stroke-width: 0.8"/>
      </defs>
      <g>
       <use xlink:href="#m16e146f870" x="53.328125" y="178.999266" style="stroke: #000000; stroke-width: 0.8"/>
      </g>
     </g>
     <g id="text_6">
      <!-- 0 -->
      <g transform="translate(39.965625 182.798485) scale(0.1 -0.1)">
       <use xlink:href="#DejaVuSans-30"/>
      </g>
     </g>
    </g>
    <g id="ytick_2">
     <g id="line2d_7">
      <g>
       <use xlink:href="#m16e146f870" x="53.328125" y="148.780877" style="stroke: #000000; stroke-width: 0.8"/>
      </g>
     </g>
     <g id="text_7">
      <!-- 200 -->
      <g transform="translate(27.240625 152.580096) scale(0.1 -0.1)">
       <use xlink:href="#DejaVuSans-32"/>
       <use xlink:href="#DejaVuSans-30" x="63.623047"/>
       <use xlink:href="#DejaVuSans-30" x="127.246094"/>
      </g>
     </g>
    </g>
    <g id="ytick_3">
     <g id="line2d_8">
      <g>
       <use xlink:href="#m16e146f870" x="53.328125" y="118.562489" style="stroke: #000000; stroke-width: 0.8"/>
      </g>
     </g>
     <g id="text_8">
      <!-- 400 -->
      <g transform="translate(27.240625 122.361707) scale(0.1 -0.1)">
       <use xlink:href="#DejaVuSans-34"/>
       <use xlink:href="#DejaVuSans-30" x="63.623047"/>
       <use xlink:href="#DejaVuSans-30" x="127.246094"/>
      </g>
     </g>
    </g>
    <g id="ytick_4">
     <g id="line2d_9">
      <g>
       <use xlink:href="#m16e146f870" x="53.328125" y="88.3441" style="stroke: #000000; stroke-width: 0.8"/>
      </g>
     </g>
     <g id="text_9">
      <!-- 600 -->
      <g transform="translate(27.240625 92.143319) scale(0.1 -0.1)">
       <use xlink:href="#DejaVuSans-36"/>
       <use xlink:href="#DejaVuSans-30" x="63.623047"/>
       <use xlink:href="#DejaVuSans-30" x="127.246094"/>
      </g>
     </g>
    </g>
    <g id="ytick_5">
     <g id="line2d_10">
      <g>
       <use xlink:href="#m16e146f870" x="53.328125" y="58.125711" style="stroke: #000000; stroke-width: 0.8"/>
      </g>
     </g>
     <g id="text_10">
      <!-- 800 -->
      <g transform="translate(27.240625 61.92493) scale(0.1 -0.1)">
       <defs>
        <path id="DejaVuSans-38" d="M 2034 2216 
Q 1584 2216 1326 1975 
Q 1069 1734 1069 1313 
Q 1069 891 1326 650 
Q 1584 409 2034 409 
Q 2484 409 2743 651 
Q 3003 894 3003 1313 
Q 3003 1734 2745 1975 
Q 2488 2216 2034 2216 
z
M 1403 2484 
Q 997 2584 770 2862 
Q 544 3141 544 3541 
Q 544 4100 942 4425 
Q 1341 4750 2034 4750 
Q 2731 4750 3128 4425 
Q 3525 4100 3525 3541 
Q 3525 3141 3298 2862 
Q 3072 2584 2669 2484 
Q 3125 2378 3379 2068 
Q 3634 1759 3634 1313 
Q 3634 634 3220 271 
Q 2806 -91 2034 -91 
Q 1263 -91 848 271 
Q 434 634 434 1313 
Q 434 1759 690 2068 
Q 947 2378 1403 2484 
z
M 1172 3481 
Q 1172 3119 1398 2916 
Q 1625 2713 2034 2713 
Q 2441 2713 2670 2916 
Q 2900 3119 2900 3481 
Q 2900 3844 2670 4047 
Q 2441 4250 2034 4250 
Q 1625 4250 1398 4047 
Q 1172 3844 1172 3481 
z
" transform="scale(0.015625)"/>
       </defs>
       <use xlink:href="#DejaVuSans-38"/>
       <use xlink:href="#DejaVuSans-30" x="63.623047"/>
       <use xlink:href="#DejaVuSans-30" x="127.246094"/>
      </g>
     </g>
    </g>
    <g id="ytick_6">
     <g id="line2d_11">
      <g>
       <use xlink:href="#m16e146f870" x="53.328125" y="27.907323" style="stroke: #000000; stroke-width: 0.8"/>
      </g>
     </g>
     <g id="text_11">
      <!-- 1000 -->
      <g transform="translate(20.878125 31.706541) scale(0.1 -0.1)">
       <defs>
        <path id="DejaVuSans-31" d="M 794 531 
L 1825 531 
L 1825 4091 
L 703 3866 
L 703 4441 
L 1819 4666 
L 2450 4666 
L 2450 531 
L 3481 531 
L 3481 0 
L 794 0 
L 794 531 
z
" transform="scale(0.015625)"/>
       </defs>
       <use xlink:href="#DejaVuSans-31"/>
       <use xlink:href="#DejaVuSans-30" x="63.623047"/>
       <use xlink:href="#DejaVuSans-30" x="127.246094"/>
       <use xlink:href="#DejaVuSans-30" x="190.869141"/>
      </g>
     </g>
    </g>
    <g id="text_12">
     <!-- $\langle \, h \rangle_t$ -->
     <g transform="translate(14.798438 114.01976) rotate(-90) scale(0.1 -0.1)">
      <defs>
       <path id="DejaVuSans-27e8" d="M 572 2006 
L 1453 4856 
L 1984 4856 
L 1103 2006 
L 1984 -844 
L 1453 -844 
L 572 2006 
z
" transform="scale(0.015625)"/>
       <path id="DejaVuSans-Oblique-68" d="M 3566 2113 
L 3156 0 
L 2578 0 
L 2988 2091 
Q 3016 2238 3031 2350 
Q 3047 2463 3047 2528 
Q 3047 2791 2881 2937 
Q 2716 3084 2419 3084 
Q 1956 3084 1617 2771 
Q 1278 2459 1178 1941 
L 800 0 
L 225 0 
L 1172 4863 
L 1747 4863 
L 1375 2950 
Q 1594 3244 1934 3414 
Q 2275 3584 2650 3584 
Q 3113 3584 3367 3334 
Q 3622 3084 3622 2631 
Q 3622 2519 3608 2391 
Q 3594 2263 3566 2113 
z
" transform="scale(0.015625)"/>
       <path id="DejaVuSans-27e9" d="M 1925 2006 
L 1044 -844 
L 513 -844 
L 1394 2006 
L 513 4856 
L 1044 4856 
L 1925 2006 
z
" transform="scale(0.015625)"/>
       <path id="DejaVuSans-Oblique-74" d="M 2706 3500 
L 2619 3053 
L 1472 3053 
L 1100 1153 
Q 1081 1047 1072 975 
Q 1063 903 1063 863 
Q 1063 663 1183 572 
Q 1303 481 1569 481 
L 2150 481 
L 2053 0 
L 1503 0 
Q 991 0 739 200 
Q 488 400 488 806 
Q 488 878 497 964 
Q 506 1050 525 1153 
L 897 3053 
L 409 3053 
L 500 3500 
L 978 3500 
L 1172 4494 
L 1747 4494 
L 1556 3500 
L 2706 3500 
z
" transform="scale(0.015625)"/>
      </defs>
      <use xlink:href="#DejaVuSans-27e8" transform="translate(0 0.015625)"/>
      <use xlink:href="#DejaVuSans-Oblique-68" transform="translate(55.249348 0.015625)"/>
      <use xlink:href="#DejaVuSans-27e9" transform="translate(118.628254 0.015625)"/>
      <use xlink:href="#DejaVuSans-Oblique-74" transform="translate(158.598958 -16.390625) scale(0.7)"/>
     </g>
    </g>
   </g>
   <g id="patch_3">
    <path d="M 53.328125 186.821395 
L 53.328125 22.318125 
" style="fill: none; stroke: #000000; stroke-width: 0.8; stroke-linejoin: miter; stroke-linecap: square"/>
   </g>
   <g id="patch_4">
    <path d="M 227.247958 186.821395 
L 227.247958 22.318125 
" style="fill: none; stroke: #000000; stroke-width: 0.8; stroke-linejoin: miter; stroke-linecap: square"/>
   </g>
   <g id="patch_5">
    <path d="M 53.328125 186.821395 
L 227.247958 186.821395 
" style="fill: none; stroke: #000000; stroke-width: 0.8; stroke-linejoin: miter; stroke-linecap: square"/>
   </g>
   <g id="patch_6">
    <path d="M 53.328125 22.318125 
L 227.247958 22.318125 
" style="fill: none; stroke: #000000; stroke-width: 0.8; stroke-linejoin: miter; stroke-linecap: square"/>
   </g>
   <g id="text_13">
    <!-- (A) -->
    <g transform="translate(131.501791 16.318125) scale(0.12 -0.12)">
     <defs>
      <path id="DejaVuSans-28" d="M 1984 4856 
Q 1566 4138 1362 3434 
Q 1159 2731 1159 2009 
Q 1159 1288 1364 580 
Q 1569 -128 1984 -844 
L 1484 -844 
Q 1016 -109 783 600 
Q 550 1309 550 2009 
Q 550 2706 781 3412 
Q 1013 4119 1484 4856 
L 1984 4856 
z
" transform="scale(0.015625)"/>
      <path id="DejaVuSans-41" d="M 2188 4044 
L 1331 1722 
L 3047 1722 
L 2188 4044 
z
M 1831 4666 
L 2547 4666 
L 4325 0 
L 3669 0 
L 3244 1197 
L 1141 1197 
L 716 0 
L 50 0 
L 1831 4666 
z
" transform="scale(0.015625)"/>
      <path id="DejaVuSans-29" d="M 513 4856 
L 1013 4856 
Q 1481 4119 1714 3412 
Q 1947 2706 1947 2009 
Q 1947 1309 1714 600 
Q 1481 -109 1013 -844 
L 513 -844 
Q 928 -128 1133 580 
Q 1338 1288 1338 2009 
Q 1338 2731 1133 3434 
Q 928 4138 513 4856 
z
" transform="scale(0.015625)"/>
     </defs>
     <use xlink:href="#DejaVuSans-28"/>
     <use xlink:href="#DejaVuSans-41" x="39.013672"/>
     <use xlink:href="#DejaVuSans-29" x="107.421875"/>
    </g>
   </g>
   <g id="legend_1">
    <g id="patch_7">
     <path d="M 156.24952 181.821395 
L 220.247958 181.821395 
Q 222.247958 181.821395 222.247958 179.821395 
L 222.247958 151.465145 
Q 222.247958 149.465145 220.247958 149.465145 
L 156.24952 149.465145 
Q 154.24952 149.465145 154.24952 151.465145 
L 154.24952 179.821395 
Q 154.24952 181.821395 156.24952 181.821395 
z
" style="fill: #ffffff; opacity: 0.8; stroke: #cccccc; stroke-linejoin: miter"/>
    </g>
    <g id="PathCollection_2">
     <g>
      <use xlink:href="#m4b01c7a87c" x="168.24952" y="158.438583" style="stroke: #000000; stroke-width: 1.5"/>
     </g>
    </g>
    <g id="text_14">
     <!-- Data -->
     <g transform="translate(186.24952 161.063583) scale(0.1 -0.1)">
      <defs>
       <path id="DejaVuSans-44" d="M 1259 4147 
L 1259 519 
L 2022 519 
Q 2988 519 3436 956 
Q 3884 1394 3884 2338 
Q 3884 3275 3436 3711 
Q 2988 4147 2022 4147 
L 1259 4147 
z
M 628 4666 
L 1925 4666 
Q 3281 4666 3915 4102 
Q 4550 3538 4550 2338 
Q 4550 1131 3912 565 
Q 3275 0 1925 0 
L 628 0 
L 628 4666 
z
" transform="scale(0.015625)"/>
       <path id="DejaVuSans-61" d="M 2194 1759 
Q 1497 1759 1228 1600 
Q 959 1441 959 1056 
Q 959 750 1161 570 
Q 1363 391 1709 391 
Q 2188 391 2477 730 
Q 2766 1069 2766 1631 
L 2766 1759 
L 2194 1759 
z
M 3341 1997 
L 3341 0 
L 2766 0 
L 2766 531 
Q 2569 213 2275 61 
Q 1981 -91 1556 -91 
Q 1019 -91 701 211 
Q 384 513 384 1019 
Q 384 1609 779 1909 
Q 1175 2209 1959 2209 
L 2766 2209 
L 2766 2266 
Q 2766 2663 2505 2880 
Q 2244 3097 1772 3097 
Q 1472 3097 1187 3025 
Q 903 2953 641 2809 
L 641 3341 
Q 956 3463 1253 3523 
Q 1550 3584 1831 3584 
Q 2591 3584 2966 3190 
Q 3341 2797 3341 1997 
z
" transform="scale(0.015625)"/>
      </defs>
      <use xlink:href="#DejaVuSans-44"/>
      <use xlink:href="#DejaVuSans-61" x="77.001953"/>
      <use xlink:href="#DejaVuSans-74" x="138.28125"/>
      <use xlink:href="#DejaVuSans-61" x="177.490234"/>
     </g>
    </g>
    <g id="line2d_12">
     <path d="M 158.24952 172.241708 
L 168.24952 172.241708 
L 178.24952 172.241708 
" style="fill: none; stroke-dasharray: 5.55,2.4; stroke-dashoffset: 0; stroke: #d3d3d3; stroke-width: 1.5"/>
    </g>
    <g id="text_15">
     <!-- Full Fit -->
     <g transform="translate(186.24952 175.741708) scale(0.1 -0.1)">
      <defs>
       <path id="DejaVuSans-46" d="M 628 4666 
L 3309 4666 
L 3309 4134 
L 1259 4134 
L 1259 2759 
L 3109 2759 
L 3109 2228 
L 1259 2228 
L 1259 0 
L 628 0 
L 628 4666 
z
" transform="scale(0.015625)"/>
       <path id="DejaVuSans-75" d="M 544 1381 
L 544 3500 
L 1119 3500 
L 1119 1403 
Q 1119 906 1312 657 
Q 1506 409 1894 409 
Q 2359 409 2629 706 
Q 2900 1003 2900 1516 
L 2900 3500 
L 3475 3500 
L 3475 0 
L 2900 0 
L 2900 538 
Q 2691 219 2414 64 
Q 2138 -91 1772 -91 
Q 1169 -91 856 284 
Q 544 659 544 1381 
z
M 1991 3584 
L 1991 3584 
z
" transform="scale(0.015625)"/>
       <path id="DejaVuSans-6c" d="M 603 4863 
L 1178 4863 
L 1178 0 
L 603 0 
L 603 4863 
z
" transform="scale(0.015625)"/>
       <path id="DejaVuSans-69" d="M 603 3500 
L 1178 3500 
L 1178 0 
L 603 0 
L 603 3500 
z
M 603 4863 
L 1178 4863 
L 1178 4134 
L 603 4134 
L 603 4863 
z
" transform="scale(0.015625)"/>
      </defs>
      <use xlink:href="#DejaVuSans-46"/>
      <use xlink:href="#DejaVuSans-75" x="52.019531"/>
      <use xlink:href="#DejaVuSans-6c" x="115.398438"/>
      <use xlink:href="#DejaVuSans-6c" x="143.181641"/>
      <use xlink:href="#DejaVuSans-20" x="170.964844"/>
      <use xlink:href="#DejaVuSans-46" x="202.751953"/>
      <use xlink:href="#DejaVuSans-69" x="253.021484"/>
      <use xlink:href="#DejaVuSans-74" x="280.804688"/>
     </g>
    </g>
   </g>
  </g>
  <g id="axes_2">
   <g id="patch_8">
    <path d="M 285.735938 186.821395 
L 459.65577 186.821395 
L 459.65577 22.318125 
L 285.735938 22.318125 
z
" style="fill: #ffffff"/>
   </g>
   <g id="line2d_13">
    <path d="M 295.485593 225.39952 
L 295.690945 138.948889 
L 297.364055 107.652239 
L 299.037166 93.553912 
L 300.710276 85.077571 
L 302.383387 79.260094 
L 304.056497 74.947597 
L 305.729608 71.584627 
L 307.402718 68.866244 
L 309.075828 66.609203 
L 310.748939 64.69585 
L 312.422049 63.04671 
L 314.09516 61.605896 
L 315.76827 60.332804 
L 317.441381 59.197126 
L 319.114491 58.175714 
L 320.787602 57.250543 
L 322.460712 56.407339 
L 324.133823 55.634631 
L 325.806933 54.923078 
L 327.480044 54.264989 
L 329.153154 53.653962 
L 330.826264 53.084624 
L 332.499375 52.552423 
L 334.172485 52.053473 
L 335.845596 51.584439 
L 337.518706 51.142435 
L 339.191817 50.724949 
L 340.864927 50.329789 
L 342.538038 49.955025 
L 344.211148 49.598954 
L 345.884259 49.260066 
L 347.557369 48.937017 
L 349.23048 48.628605 
L 350.90359 48.333754 
L 352.5767 48.051494 
L 354.249811 47.78095 
L 355.922921 47.52133 
L 357.596032 47.271916 
L 359.269142 47.032054 
L 360.942253 46.801146 
L 362.615363 46.578647 
L 364.288474 46.364056 
L 365.961584 46.156914 
L 367.634695 45.956798 
L 369.307805 45.763318 
L 370.980916 45.576115 
L 372.654026 45.394853 
L 374.327136 45.219225 
L 376.000247 45.048942 
L 377.673357 44.88374 
L 379.346468 44.723367 
L 381.019578 44.567594 
L 382.692689 44.416203 
L 384.365799 44.268992 
L 386.03891 44.12577 
L 387.71202 43.986361 
L 389.385131 43.850598 
L 391.058241 43.718323 
L 392.731352 43.58939 
L 394.404462 43.463659 
L 396.077572 43.340999 
L 397.750683 43.221287 
L 399.423793 43.104406 
L 401.096904 42.990246 
L 402.770014 42.878702 
L 404.443125 42.769676 
L 406.116235 42.663074 
L 407.789346 42.558807 
L 409.462456 42.456791 
L 411.135567 42.356945 
L 412.808677 42.259193 
L 414.481788 42.163463 
L 416.154898 42.069686 
L 417.828008 41.977796 
L 419.501119 41.887731 
L 421.174229 41.799429 
L 422.84734 41.712836 
L 424.52045 41.627895 
L 426.193561 41.544554 
L 427.866671 41.462765 
L 429.539782 41.382479 
L 431.212892 41.30365 
L 432.886003 41.226235 
L 434.559113 41.150191 
L 436.232224 41.075479 
L 437.905334 41.002061 
L 439.578444 40.929898 
L 441.251555 40.858956 
L 442.924665 40.789199 
L 444.597776 40.720597 
L 446.270886 40.653116 
L 447.943997 40.586727 
L 449.617107 40.5214 
L 451.290218 40.457107 
L 452.963328 40.393821 
L 454.636439 40.331516 
L 456.309549 40.270167 
L 457.98266 40.209749 
L 459.65577 40.150239 
" clip-path="url(#pdd5c145aed)" style="fill: none; stroke-dasharray: 5.55,2.4; stroke-dashoffset: 0; stroke: #d3d3d3; stroke-width: 1.5"/>
   </g>
   <g id="PathCollection_3">
    <g clip-path="url(#pdd5c145aed)">
     <use xlink:href="#m4b01c7a87c" x="295.09466" y="163.558576" style="stroke: #000000; stroke-width: 1.5"/>
     <use xlink:href="#m4b01c7a87c" x="296.199097" y="127.860339" style="stroke: #000000; stroke-width: 1.5"/>
     <use xlink:href="#m4b01c7a87c" x="298.407971" y="98.573102" style="stroke: #000000; stroke-width: 1.5"/>
     <use xlink:href="#m4b01c7a87c" x="302.825719" y="77.358606" style="stroke: #000000; stroke-width: 1.5"/>
     <use xlink:href="#m4b01c7a87c" x="311.661215" y="62.172127" style="stroke: #000000; stroke-width: 1.5"/>
     <use xlink:href="#m4b01c7a87c" x="329.332207" y="52.897419" style="stroke: #000000; stroke-width: 1.5"/>
     <use xlink:href="#m4b01c7a87c" x="364.67419" y="45.945743" style="stroke: #000000; stroke-width: 1.5"/>
     <use xlink:href="#m4b01c7a87c" x="435.358156" y="42.831779" style="stroke: #000000; stroke-width: 1.5"/>
    </g>
   </g>
   <g id="matplotlib.axis_3">
    <g id="xtick_5">
     <g id="line2d_14">
      <g>
       <use xlink:href="#m22d3cec6b3" x="293.990223" y="186.821395" style="stroke: #000000; stroke-width: 0.8"/>
      </g>
     </g>
     <g id="text_16">
      <!-- 0 -->
      <g transform="translate(290.808973 201.419833) scale(0.1 -0.1)">
       <use xlink:href="#DejaVuSans-30"/>
      </g>
     </g>
    </g>
    <g id="xtick_6">
     <g id="line2d_15">
      <g>
       <use xlink:href="#m22d3cec6b3" x="349.212072" y="186.821395" style="stroke: #000000; stroke-width: 0.8"/>
      </g>
     </g>
     <g id="text_17">
      <!-- 200 -->
      <g transform="translate(339.668322 201.419833) scale(0.1 -0.1)">
       <use xlink:href="#DejaVuSans-32"/>
       <use xlink:href="#DejaVuSans-30" x="63.623047"/>
       <use xlink:href="#DejaVuSans-30" x="127.246094"/>
      </g>
     </g>
    </g>
    <g id="xtick_7">
     <g id="line2d_16">
      <g>
       <use xlink:href="#m22d3cec6b3" x="404.433921" y="186.821395" style="stroke: #000000; stroke-width: 0.8"/>
      </g>
     </g>
     <g id="text_18">
      <!-- 400 -->
      <g transform="translate(394.890171 201.419833) scale(0.1 -0.1)">
       <use xlink:href="#DejaVuSans-34"/>
       <use xlink:href="#DejaVuSans-30" x="63.623047"/>
       <use xlink:href="#DejaVuSans-30" x="127.246094"/>
      </g>
     </g>
    </g>
    <g id="xtick_8">
     <g id="line2d_17">
      <g>
       <use xlink:href="#m22d3cec6b3" x="459.65577" y="186.821395" style="stroke: #000000; stroke-width: 0.8"/>
      </g>
     </g>
     <g id="text_19">
      <!-- 600 -->
      <g transform="translate(450.11202 201.419833) scale(0.1 -0.1)">
       <use xlink:href="#DejaVuSans-36"/>
       <use xlink:href="#DejaVuSans-30" x="63.623047"/>
       <use xlink:href="#DejaVuSans-30" x="127.246094"/>
      </g>
     </g>
    </g>
    <g id="text_20">
     <!-- System Length, $L$ -->
     <g transform="translate(329.145854 215.09952) scale(0.1 -0.1)">
      <use xlink:href="#DejaVuSans-53" transform="translate(0 0.015625)"/>
      <use xlink:href="#DejaVuSans-79" transform="translate(63.476562 0.015625)"/>
      <use xlink:href="#DejaVuSans-73" transform="translate(122.65625 0.015625)"/>
      <use xlink:href="#DejaVuSans-74" transform="translate(174.755859 0.015625)"/>
      <use xlink:href="#DejaVuSans-65" transform="translate(213.964844 0.015625)"/>
      <use xlink:href="#DejaVuSans-6d" transform="translate(275.488281 0.015625)"/>
      <use xlink:href="#DejaVuSans-20" transform="translate(372.900391 0.015625)"/>
      <use xlink:href="#DejaVuSans-4c" transform="translate(404.6875 0.015625)"/>
      <use xlink:href="#DejaVuSans-65" transform="translate(460.400391 0.015625)"/>
      <use xlink:href="#DejaVuSans-6e" transform="translate(521.923828 0.015625)"/>
      <use xlink:href="#DejaVuSans-67" transform="translate(585.302734 0.015625)"/>
      <use xlink:href="#DejaVuSans-74" transform="translate(648.779297 0.015625)"/>
      <use xlink:href="#DejaVuSans-68" transform="translate(687.988281 0.015625)"/>
      <use xlink:href="#DejaVuSans-2c" transform="translate(751.367188 0.015625)"/>
      <use xlink:href="#DejaVuSans-20" transform="translate(783.154297 0.015625)"/>
      <use xlink:href="#DejaVuSans-Oblique-4c" transform="translate(814.941406 0.015625)"/>
     </g>
    </g>
   </g>
   <g id="matplotlib.axis_4">
    <g id="ytick_7">
     <g id="line2d_18">
      <g>
       <use xlink:href="#m16e146f870" x="285.735938" y="186.821395" style="stroke: #000000; stroke-width: 0.8"/>
      </g>
     </g>
     <g id="text_21">
      <!-- 1.55 -->
      <g transform="translate(256.470313 190.620614) scale(0.1 -0.1)">
       <defs>
        <path id="DejaVuSans-2e" d="M 684 794 
L 1344 794 
L 1344 0 
L 684 0 
L 684 794 
z
" transform="scale(0.015625)"/>
        <path id="DejaVuSans-35" d="M 691 4666 
L 3169 4666 
L 3169 4134 
L 1269 4134 
L 1269 2991 
Q 1406 3038 1543 3061 
Q 1681 3084 1819 3084 
Q 2600 3084 3056 2656 
Q 3513 2228 3513 1497 
Q 3513 744 3044 326 
Q 2575 -91 1722 -91 
Q 1428 -91 1123 -41 
Q 819 9 494 109 
L 494 744 
Q 775 591 1075 516 
Q 1375 441 1709 441 
Q 2250 441 2565 725 
Q 2881 1009 2881 1497 
Q 2881 1984 2565 2268 
Q 2250 2553 1709 2553 
Q 1456 2553 1204 2497 
Q 953 2441 691 2322 
L 691 4666 
z
" transform="scale(0.015625)"/>
       </defs>
       <use xlink:href="#DejaVuSans-31"/>
       <use xlink:href="#DejaVuSans-2e" x="63.623047"/>
       <use xlink:href="#DejaVuSans-35" x="95.410156"/>
       <use xlink:href="#DejaVuSans-35" x="159.033203"/>
      </g>
     </g>
    </g>
    <g id="ytick_8">
     <g id="line2d_19">
      <g>
       <use xlink:href="#m16e146f870" x="285.735938" y="145.695577" style="stroke: #000000; stroke-width: 0.8"/>
      </g>
     </g>
     <g id="text_22">
      <!-- 1.60 -->
      <g transform="translate(256.470313 149.494796) scale(0.1 -0.1)">
       <use xlink:href="#DejaVuSans-31"/>
       <use xlink:href="#DejaVuSans-2e" x="63.623047"/>
       <use xlink:href="#DejaVuSans-36" x="95.410156"/>
       <use xlink:href="#DejaVuSans-30" x="159.033203"/>
      </g>
     </g>
    </g>
    <g id="ytick_9">
     <g id="line2d_20">
      <g>
       <use xlink:href="#m16e146f870" x="285.735938" y="104.56976" style="stroke: #000000; stroke-width: 0.8"/>
      </g>
     </g>
     <g id="text_23">
      <!-- 1.65 -->
      <g transform="translate(256.470313 108.368979) scale(0.1 -0.1)">
       <use xlink:href="#DejaVuSans-31"/>
       <use xlink:href="#DejaVuSans-2e" x="63.623047"/>
       <use xlink:href="#DejaVuSans-36" x="95.410156"/>
       <use xlink:href="#DejaVuSans-35" x="159.033203"/>
      </g>
     </g>
    </g>
    <g id="ytick_10">
     <g id="line2d_21">
      <g>
       <use xlink:href="#m16e146f870" x="285.735938" y="63.443942" style="stroke: #000000; stroke-width: 0.8"/>
      </g>
     </g>
     <g id="text_24">
      <!-- 1.70 -->
      <g transform="translate(256.470313 67.243161) scale(0.1 -0.1)">
       <defs>
        <path id="DejaVuSans-37" d="M 525 4666 
L 3525 4666 
L 3525 4397 
L 1831 0 
L 1172 0 
L 2766 4134 
L 525 4134 
L 525 4666 
z
" transform="scale(0.015625)"/>
       </defs>
       <use xlink:href="#DejaVuSans-31"/>
       <use xlink:href="#DejaVuSans-2e" x="63.623047"/>
       <use xlink:href="#DejaVuSans-37" x="95.410156"/>
       <use xlink:href="#DejaVuSans-30" x="159.033203"/>
      </g>
     </g>
    </g>
    <g id="ytick_11">
     <g id="line2d_22">
      <g>
       <use xlink:href="#m16e146f870" x="285.735938" y="22.318125" style="stroke: #000000; stroke-width: 0.8"/>
      </g>
     </g>
     <g id="text_25">
      <!-- 1.75 -->
      <g transform="translate(256.470313 26.117344) scale(0.1 -0.1)">
       <use xlink:href="#DejaVuSans-31"/>
       <use xlink:href="#DejaVuSans-2e" x="63.623047"/>
       <use xlink:href="#DejaVuSans-37" x="95.410156"/>
       <use xlink:href="#DejaVuSans-35" x="159.033203"/>
      </g>
     </g>
    </g>
    <g id="text_26">
     <!-- $\langle \, h \rangle_t \,\, / \,\, L$ -->
     <g transform="translate(250.390625 121.76976) rotate(-90) scale(0.1 -0.1)">
      <defs>
       <path id="DejaVuSans-2f" d="M 1625 4666 
L 2156 4666 
L 531 -594 
L 0 -594 
L 1625 4666 
z
" transform="scale(0.015625)"/>
      </defs>
      <use xlink:href="#DejaVuSans-27e8" transform="translate(0 0.015625)"/>
      <use xlink:href="#DejaVuSans-Oblique-68" transform="translate(55.249348 0.015625)"/>
      <use xlink:href="#DejaVuSans-27e9" transform="translate(118.628254 0.015625)"/>
      <use xlink:href="#DejaVuSans-Oblique-74" transform="translate(158.598958 -16.390625) scale(0.7)"/>
      <use xlink:href="#DejaVuSans-2f" transform="translate(221.250974 0.015625)"/>
      <use xlink:href="#DejaVuSans-Oblique-4c" transform="translate(287.413733 0.015625)"/>
     </g>
    </g>
   </g>
   <g id="LineCollection_1">
    <path d="M 285.735938 28.071176 
L 459.65577 28.071176 
" clip-path="url(#pdd5c145aed)" style="fill: none; stroke-dasharray: 1.5,2.475; stroke-dashoffset: 0; stroke: #000000; stroke-width: 1.5"/>
   </g>
   <g id="patch_9">
    <path d="M 285.735938 186.821395 
L 285.735938 22.318125 
" style="fill: none; stroke: #000000; stroke-width: 0.8; stroke-linejoin: miter; stroke-linecap: square"/>
   </g>
   <g id="patch_10">
    <path d="M 459.65577 186.821395 
L 459.65577 22.318125 
" style="fill: none; stroke: #000000; stroke-width: 0.8; stroke-linejoin: miter; stroke-linecap: square"/>
   </g>
   <g id="patch_11">
    <path d="M 285.735938 186.821395 
L 459.65577 186.821395 
" style="fill: none; stroke: #000000; stroke-width: 0.8; stroke-linejoin: miter; stroke-linecap: square"/>
   </g>
   <g id="patch_12">
    <path d="M 285.735938 22.318125 
L 459.65577 22.318125 
" style="fill: none; stroke: #000000; stroke-width: 0.8; stroke-linejoin: miter; stroke-linecap: square"/>
   </g>
   <g id="text_27">
    <!-- (B) -->
    <g transform="translate(363.897416 16.318125) scale(0.12 -0.12)">
     <defs>
      <path id="DejaVuSans-42" d="M 1259 2228 
L 1259 519 
L 2272 519 
Q 2781 519 3026 730 
Q 3272 941 3272 1375 
Q 3272 1813 3026 2020 
Q 2781 2228 2272 2228 
L 1259 2228 
z
M 1259 4147 
L 1259 2741 
L 2194 2741 
Q 2656 2741 2882 2914 
Q 3109 3088 3109 3444 
Q 3109 3797 2882 3972 
Q 2656 4147 2194 4147 
L 1259 4147 
z
M 628 4666 
L 2241 4666 
Q 2963 4666 3353 4366 
Q 3744 4066 3744 3513 
Q 3744 3084 3544 2831 
Q 3344 2578 2956 2516 
Q 3422 2416 3680 2098 
Q 3938 1781 3938 1306 
Q 3938 681 3513 340 
Q 3088 0 2303 0 
L 628 0 
L 628 4666 
z
" transform="scale(0.015625)"/>
     </defs>
     <use xlink:href="#DejaVuSans-28"/>
     <use xlink:href="#DejaVuSans-42" x="39.013672"/>
     <use xlink:href="#DejaVuSans-29" x="107.617188"/>
    </g>
   </g>
   <g id="legend_2">
    <g id="patch_13">
     <path d="M 333.66202 181.821395 
L 452.65577 181.821395 
Q 454.65577 181.821395 454.65577 179.821395 
L 454.65577 136.766708 
Q 454.65577 134.766708 452.65577 134.766708 
L 333.66202 134.766708 
Q 331.66202 134.766708 331.66202 136.766708 
L 331.66202 179.821395 
Q 331.66202 181.821395 333.66202 181.821395 
z
" style="fill: #ffffff; opacity: 0.8; stroke: #cccccc; stroke-linejoin: miter"/>
    </g>
    <g id="PathCollection_4">
     <g>
      <use xlink:href="#m4b01c7a87c" x="345.66202" y="143.740145" style="stroke: #000000; stroke-width: 1.5"/>
     </g>
    </g>
    <g id="text_28">
     <!-- Data -->
     <g transform="translate(363.66202 146.365145) scale(0.1 -0.1)">
      <use xlink:href="#DejaVuSans-44"/>
      <use xlink:href="#DejaVuSans-61" x="77.001953"/>
      <use xlink:href="#DejaVuSans-74" x="138.28125"/>
      <use xlink:href="#DejaVuSans-61" x="177.490234"/>
     </g>
    </g>
    <g id="line2d_23">
     <path d="M 335.66202 157.54327 
L 345.66202 157.54327 
L 355.66202 157.54327 
" style="fill: none; stroke-dasharray: 5.55,2.4; stroke-dashoffset: 0; stroke: #d3d3d3; stroke-width: 1.5"/>
    </g>
    <g id="text_29">
     <!-- Cor. to Scaling Fit -->
     <g transform="translate(363.66202 161.04327) scale(0.1 -0.1)">
      <defs>
       <path id="DejaVuSans-43" d="M 4122 4306 
L 4122 3641 
Q 3803 3938 3442 4084 
Q 3081 4231 2675 4231 
Q 1875 4231 1450 3742 
Q 1025 3253 1025 2328 
Q 1025 1406 1450 917 
Q 1875 428 2675 428 
Q 3081 428 3442 575 
Q 3803 722 4122 1019 
L 4122 359 
Q 3791 134 3420 21 
Q 3050 -91 2638 -91 
Q 1578 -91 968 557 
Q 359 1206 359 2328 
Q 359 3453 968 4101 
Q 1578 4750 2638 4750 
Q 3056 4750 3426 4639 
Q 3797 4528 4122 4306 
z
" transform="scale(0.015625)"/>
       <path id="DejaVuSans-6f" d="M 1959 3097 
Q 1497 3097 1228 2736 
Q 959 2375 959 1747 
Q 959 1119 1226 758 
Q 1494 397 1959 397 
Q 2419 397 2687 759 
Q 2956 1122 2956 1747 
Q 2956 2369 2687 2733 
Q 2419 3097 1959 3097 
z
M 1959 3584 
Q 2709 3584 3137 3096 
Q 3566 2609 3566 1747 
Q 3566 888 3137 398 
Q 2709 -91 1959 -91 
Q 1206 -91 779 398 
Q 353 888 353 1747 
Q 353 2609 779 3096 
Q 1206 3584 1959 3584 
z
" transform="scale(0.015625)"/>
       <path id="DejaVuSans-72" d="M 2631 2963 
Q 2534 3019 2420 3045 
Q 2306 3072 2169 3072 
Q 1681 3072 1420 2755 
Q 1159 2438 1159 1844 
L 1159 0 
L 581 0 
L 581 3500 
L 1159 3500 
L 1159 2956 
Q 1341 3275 1631 3429 
Q 1922 3584 2338 3584 
Q 2397 3584 2469 3576 
Q 2541 3569 2628 3553 
L 2631 2963 
z
" transform="scale(0.015625)"/>
       <path id="DejaVuSans-63" d="M 3122 3366 
L 3122 2828 
Q 2878 2963 2633 3030 
Q 2388 3097 2138 3097 
Q 1578 3097 1268 2742 
Q 959 2388 959 1747 
Q 959 1106 1268 751 
Q 1578 397 2138 397 
Q 2388 397 2633 464 
Q 2878 531 3122 666 
L 3122 134 
Q 2881 22 2623 -34 
Q 2366 -91 2075 -91 
Q 1284 -91 818 406 
Q 353 903 353 1747 
Q 353 2603 823 3093 
Q 1294 3584 2113 3584 
Q 2378 3584 2631 3529 
Q 2884 3475 3122 3366 
z
" transform="scale(0.015625)"/>
      </defs>
      <use xlink:href="#DejaVuSans-43"/>
      <use xlink:href="#DejaVuSans-6f" x="69.824219"/>
      <use xlink:href="#DejaVuSans-72" x="131.005859"/>
      <use xlink:href="#DejaVuSans-2e" x="162.994141"/>
      <use xlink:href="#DejaVuSans-20" x="194.78125"/>
      <use xlink:href="#DejaVuSans-74" x="226.568359"/>
      <use xlink:href="#DejaVuSans-6f" x="265.777344"/>
      <use xlink:href="#DejaVuSans-20" x="326.958984"/>
      <use xlink:href="#DejaVuSans-53" x="358.746094"/>
      <use xlink:href="#DejaVuSans-63" x="422.222656"/>
      <use xlink:href="#DejaVuSans-61" x="477.203125"/>
      <use xlink:href="#DejaVuSans-6c" x="538.482422"/>
      <use xlink:href="#DejaVuSans-69" x="566.265625"/>
      <use xlink:href="#DejaVuSans-6e" x="594.048828"/>
      <use xlink:href="#DejaVuSans-67" x="657.427734"/>
      <use xlink:href="#DejaVuSans-20" x="720.904297"/>
      <use xlink:href="#DejaVuSans-46" x="752.691406"/>
      <use xlink:href="#DejaVuSans-69" x="802.960938"/>
      <use xlink:href="#DejaVuSans-74" x="830.744141"/>
     </g>
    </g>
    <g id="line2d_24">
     <path d="M 335.66202 172.221395 
L 355.66202 172.221395 
" style="fill: none; stroke-dasharray: 1.5,2.475; stroke-dashoffset: 0; stroke: #000000; stroke-width: 1.5"/>
    </g>
    <g id="text_30">
     <!-- Asymptote, $a_0$ -->
     <g transform="translate(363.66202 175.721395) scale(0.1 -0.1)">
      <defs>
       <path id="DejaVuSans-70" d="M 1159 525 
L 1159 -1331 
L 581 -1331 
L 581 3500 
L 1159 3500 
L 1159 2969 
Q 1341 3281 1617 3432 
Q 1894 3584 2278 3584 
Q 2916 3584 3314 3078 
Q 3713 2572 3713 1747 
Q 3713 922 3314 415 
Q 2916 -91 2278 -91 
Q 1894 -91 1617 61 
Q 1341 213 1159 525 
z
M 3116 1747 
Q 3116 2381 2855 2742 
Q 2594 3103 2138 3103 
Q 1681 3103 1420 2742 
Q 1159 2381 1159 1747 
Q 1159 1113 1420 752 
Q 1681 391 2138 391 
Q 2594 391 2855 752 
Q 3116 1113 3116 1747 
z
" transform="scale(0.015625)"/>
       <path id="DejaVuSans-Oblique-61" d="M 3438 1997 
L 3047 0 
L 2472 0 
L 2578 531 
Q 2325 219 2001 64 
Q 1678 -91 1281 -91 
Q 834 -91 548 182 
Q 263 456 263 884 
Q 263 1497 752 1853 
Q 1241 2209 2100 2209 
L 2900 2209 
L 2931 2363 
Q 2938 2388 2941 2417 
Q 2944 2447 2944 2509 
Q 2944 2788 2717 2942 
Q 2491 3097 2081 3097 
Q 1800 3097 1504 3025 
Q 1209 2953 897 2809 
L 997 3341 
Q 1322 3463 1633 3523 
Q 1944 3584 2234 3584 
Q 2853 3584 3176 3315 
Q 3500 3047 3500 2534 
Q 3500 2431 3484 2292 
Q 3469 2153 3438 1997 
z
M 2816 1759 
L 2241 1759 
Q 1534 1759 1195 1570 
Q 856 1381 856 984 
Q 856 709 1029 553 
Q 1203 397 1509 397 
Q 1978 397 2328 733 
Q 2678 1069 2791 1631 
L 2816 1759 
z
" transform="scale(0.015625)"/>
      </defs>
      <use xlink:href="#DejaVuSans-41" transform="translate(0 0.09375)"/>
      <use xlink:href="#DejaVuSans-73" transform="translate(68.408203 0.09375)"/>
      <use xlink:href="#DejaVuSans-79" transform="translate(120.507812 0.09375)"/>
      <use xlink:href="#DejaVuSans-6d" transform="translate(179.6875 0.09375)"/>
      <use xlink:href="#DejaVuSans-70" transform="translate(277.099609 0.09375)"/>
      <use xlink:href="#DejaVuSans-74" transform="translate(340.576172 0.09375)"/>
      <use xlink:href="#DejaVuSans-6f" transform="translate(379.785156 0.09375)"/>
      <use xlink:href="#DejaVuSans-74" transform="translate(440.966797 0.09375)"/>
      <use xlink:href="#DejaVuSans-65" transform="translate(480.175781 0.09375)"/>
      <use xlink:href="#DejaVuSans-2c" transform="translate(541.699219 0.09375)"/>
      <use xlink:href="#DejaVuSans-20" transform="translate(573.486328 0.09375)"/>
      <use xlink:href="#DejaVuSans-Oblique-61" transform="translate(605.273438 0.09375)"/>
      <use xlink:href="#DejaVuSans-30" transform="translate(666.552734 -16.3125) scale(0.7)"/>
     </g>
    </g>
   </g>
  </g>
 </g>
 <defs>
  <clipPath id="pa9e237694a">
   <rect x="53.328125" y="22.318125" width="173.919833" height="164.50327"/>
  </clipPath>
  <clipPath id="pdd5c145aed">
   <rect x="285.735938" y="22.318125" width="173.919832" height="164.50327"/>
  </clipPath>
 </defs>
</svg>
